<?xml version="1.0" encoding="UTF-8" standalone="no"?>
<!-- Created with Inkscape (http://www.inkscape.org/) -->

<svg
   xmlns:dc="http://purl.org/dc/elements/1.1/"
   xmlns:cc="http://creativecommons.org/ns#"
   xmlns:rdf="http://www.w3.org/1999/02/22-rdf-syntax-ns#"
   xmlns:svg="http://www.w3.org/2000/svg"
   xmlns="http://www.w3.org/2000/svg"
   xmlns:sodipodi="http://sodipodi.sourceforge.net/DTD/sodipodi-0.dtd"
   xmlns:inkscape="http://www.inkscape.org/namespaces/inkscape"
   version="1.1"
   id="svg869"
   xml:space="preserve"
   width="190.37733"
   height="223.51199"
   viewBox="0 0 190.37734 223.51199"
   sodipodi:docname="JACW_Logo_Icon.svg"
   inkscape:version="0.92.5 (2060ec1f9f, 2020-04-08)"><metadata
     id="metadata875"><rdf:RDF><cc:Work
         rdf:about=""><dc:format>image/svg+xml</dc:format><dc:type
           rdf:resource="http://purl.org/dc/dcmitype/StillImage" /><dc:title></dc:title></cc:Work></rdf:RDF></metadata><defs
     id="defs873" /><sodipodi:namedview
     pagecolor="#ffffff"
     bordercolor="#666666"
     borderopacity="1"
     objecttolerance="10"
     gridtolerance="10"
     guidetolerance="10"
     inkscape:pageopacity="0"
     inkscape:pageshadow="2"
     inkscape:window-width="1270"
     inkscape:window-height="1404"
     id="namedview871"
     showgrid="false"
     inkscape:zoom="1.892647"
     inkscape:cx="104.20213"
     inkscape:cy="61.820527"
     inkscape:window-x="2722"
     inkscape:window-y="545"
     inkscape:window-maximized="0"
     inkscape:current-layer="g877"
     fit-margin-top="0"
     fit-margin-left="0"
     fit-margin-right="0"
     fit-margin-bottom="0" /><g
     id="g877"
     inkscape:groupmode="layer"
     inkscape:label="JACW_Logo"
     transform="matrix(1.3333333,0,0,-1.3333333,-125.1312,388.35812)"><g
       id="g2148"><g
         transform="translate(211.8984,255.7036)"
         id="g887"><path
           inkscape:connector-curvature="0"
           id="path889"
           style="fill:#ffffff;fill-opacity:1;fill-rule:nonzero;stroke:none"
           d="m 0,0 c -6.131,20.434 -23.847,35.565 -45.284,35.565 -21.76,0 -40.076,-15.453 -45.541,-36.475 h -14.978 c -1.971,-8.832 -5.059,-24.349 -5.059,-38.832 0,-14.483 3.827,-34.137 -1.1,-49.913 -4.926,-15.776 -6.088,-17.845 -6.088,-17.845 0,0 27.249,3.079 33.365,1.575 0,-5.948 -0.539,-26.144 -0.539,-26.144 l 10.563,0.776 0.807,24.617 c 0,0 12.831,-2.094 18.249,-4.679 4.435,4.655 7.367,17.044 7.367,26.613 0,9.569 -0.94,21.207 -0.94,21.207 0,0 7.356,-1.422 8.71,0 0,-5.431 -1.163,-21.778 -2.704,-28.706 -1.542,-6.928 -4.079,-13.449 -4.079,-13.449 0,0 20.822,2.4 31.414,0.848 v -26.71 H -5.18 l 0.269,25.465 c 0,0 8.956,-2.448 17.823,-5.292 5.172,9.827 7.793,30.775 6.068,47.068 -1.723,16.293 -7.545,32.587 5.753,62.845 C 7.987,-1.466 0.363,-1.21 0,0" /></g><g
         transform="translate(153.9775,150.9473)"
         id="g891"><path
           inkscape:connector-curvature="0"
           id="path893"
           style="fill:#231f20;fill-opacity:1;fill-rule:nonzero;stroke:none"
           d="M 0,0 C 0.14,-0.575 0.06,-0.438 0.122,0.011 0.098,0.025 0.073,0.039 0.047,0.052 0.032,0.039 0.016,0.022 0,0" /></g><g
         transform="translate(154.3398,150.8276)"
         id="g895"><path
           inkscape:connector-curvature="0"
           id="path897"
           style="fill:#231f20;fill-opacity:1;fill-rule:nonzero;stroke:none"
           d="M 0,0 C -0.05,0.105 -0.136,0.208 -0.228,0.206 -0.232,0.18 -0.237,0.155 -0.24,0.131 -0.161,0.087 -0.077,0.045 0,0" /></g><g
         transform="translate(153.8809,248.0767)"
         id="g899"><path
           inkscape:connector-curvature="0"
           id="path901"
           style="fill:#231f20;fill-opacity:1;fill-rule:nonzero;stroke:none"
           d="m 0,0 0.416,-0.078 -0.483,-0.078 z m 0.142,-31.168 c -0.02,0.485 0.18,-0.176 0.154,0.465 0.096,-0.534 -0.133,-0.375 -0.154,-0.465 m 2.529,-20.528 -0.283,-0.141 -0.021,0.162 z" /></g><g
         transform="translate(156.7393,234.9888)"
         id="g903"><path
           inkscape:connector-curvature="0"
           id="path905"
           style="fill:#231f20;fill-opacity:1;fill-rule:nonzero;stroke:none"
           d="m 0,0 c -0.01,0.216 -0.049,0.15 -0.103,-0.061 -0.003,-0.02 -0.007,-0.04 -0.01,-0.06 0.035,0.07 0.072,0.12 0.113,0.121" /></g><g
         transform="translate(153.8604,149.2148)"
         id="g907"><path
           inkscape:connector-curvature="0"
           id="path909"
           style="fill:#231f20;fill-opacity:1;fill-rule:nonzero;stroke:none"
           d="M 0,0 0.053,-0.056 0.074,-0.07 C 0.052,-0.039 0.03,-0.011 0.007,0.02 0.006,0.013 -0.002,0.008 0,0" /></g><g
         transform="translate(103.1094,157.9736)"
         id="g911"><path
           inkscape:connector-curvature="0"
           id="path913"
           style="fill:#231f20;fill-opacity:1;fill-rule:nonzero;stroke:none"
           d="M 0,0 C -0.209,-0.286 -0.22,-0.511 -0.178,-0.693 0.47,0.416 -0.348,-1.024 0,0" /></g><g
         transform="translate(109.9551,248.9629)"
         id="g915"><path
           inkscape:connector-curvature="0"
           id="path917"
           style="fill:#231f20;fill-opacity:1;fill-rule:nonzero;stroke:none"
           d="M 0,0 C -0.005,-0.002 -0.005,-0.002 0,0" /></g><g
         transform="translate(112.2798,249.7856)"
         id="g919"><path
           inkscape:connector-curvature="0"
           id="path921"
           style="fill:#231f20;fill-opacity:1;fill-rule:nonzero;stroke:none"
           d="M 0,0 C -0.03,-0.003 0.016,-0.02 0,0" /></g><g
         transform="translate(105.5815,164.5361)"
         id="g923"><path
           inkscape:connector-curvature="0"
           id="path925"
           style="fill:#231f20;fill-opacity:1;fill-rule:nonzero;stroke:none"
           d="M 0,0 C 0.011,-0.012 0.02,-0.029 0.035,-0.037 0.029,0 0.016,0.008 0,0" /></g><g
         transform="translate(156.7837,250.6807)"
         id="g927"><path
           inkscape:connector-curvature="0"
           id="path929"
           style="fill:#231f20;fill-opacity:1;fill-rule:nonzero;stroke:none"
           d="M 0,0 C 0.152,-0.001 0.306,-0.004 0.455,0 0.292,0.03 0.193,0.022 0,0" /></g><g
         transform="translate(162.5313,246.3276)"
         id="g931"><path
           inkscape:connector-curvature="0"
           id="path933"
           style="fill:#231f20;fill-opacity:1;fill-rule:nonzero;stroke:none"
           d="M 0,0 C 0.01,0.029 0.02,0.062 0.023,0.1 0.016,0.066 0.007,0.033 0,0" /></g><g
         transform="translate(153.9868,149.3057)"
         id="g935"><path
           inkscape:connector-curvature="0"
           id="path937"
           style="fill:#231f20;fill-opacity:1;fill-rule:nonzero;stroke:none"
           d="M 0,0 V 0 C 0.034,-0.045 0.037,-0.05 0,0" /></g><g
         transform="translate(109.6118,197.1831)"
         id="g939"><path
           inkscape:connector-curvature="0"
           id="path941"
           style="fill:#231f20;fill-opacity:1;fill-rule:nonzero;stroke:none"
           d="M 0,0 C -0.002,-0.181 0.014,-0.315 0.04,-0.423 0.048,-0.349 0.039,-0.221 0,0" /></g><g
         transform="translate(109.4302,209.1948)"
         id="g943"><path
           inkscape:connector-curvature="0"
           id="path945"
           style="fill:#231f20;fill-opacity:1;fill-rule:nonzero;stroke:none"
           d="M 0,0 C 0.017,-0.035 0.035,-0.064 0.057,-0.086 0.038,-0.044 0.019,-0.018 0,0" /></g><g
         transform="translate(162.6133,248.1865)"
         id="g947"><path
           inkscape:connector-curvature="0"
           id="path949"
           style="fill:#231f20;fill-opacity:1;fill-rule:nonzero;stroke:none"
           d="M 0,0 C -0.003,0.004 -0.006,0.007 -0.008,0.011 -0.006,0.007 -0.002,0.004 0,0" /></g><g
         transform="translate(161.4629,249.8438)"
         id="g951"><path
           inkscape:connector-curvature="0"
           id="path953"
           style="fill:#231f20;fill-opacity:1;fill-rule:nonzero;stroke:none"
           d="M 0,0 H -0.004 L -0.015,0.002 -0.032,0.005 C 0.023,-0.062 0.083,-0.137 0.107,-0.167 0.316,-0.424 0.69,-0.884 1.331,-1.673 v -0.002 -10e-4 l 0.002,-0.006 v -0.011 l 0.004,-0.083 0.022,0.091 v 0.006 0.001 C 0.753,-0.93 2.721,-3.349 0,0" /></g><g
         transform="translate(162.6133,248.1865)"
         id="g955"><path
           inkscape:connector-curvature="0"
           id="path957"
           style="fill:#231f20;fill-opacity:1;fill-rule:nonzero;stroke:none"
           d="M 0,0 V 0 C 0.094,-0.115 0.187,-0.228 0,0" /></g><g
         transform="translate(105.0029,162.7251)"
         id="g959"><path
           inkscape:connector-curvature="0"
           id="path961"
           style="fill:#231f20;fill-opacity:1;fill-rule:nonzero;stroke:none"
           d="M 0,0 C 0.002,0.054 0.006,0.107 0.009,0.161 -0.014,0.089 -0.026,0.029 0,0" /></g><g
         transform="translate(109.9604,248.9658)"
         id="g963"><path
           inkscape:connector-curvature="0"
           id="path965"
           style="fill:#231f20;fill-opacity:1;fill-rule:nonzero;stroke:none"
           d="M 0,0 C -0.001,-0.001 -0.004,-0.002 -0.005,-0.003 -0.004,-0.002 -0.002,-0.001 0,0" /></g><g
         transform="translate(104.5723,159.9717)"
         id="g967"><path
           inkscape:connector-curvature="0"
           id="path969"
           style="fill:#231f20;fill-opacity:1;fill-rule:nonzero;stroke:none"
           d="M 0,0 C -0.016,-0.075 -0.026,-0.149 -0.026,-0.22 -0.016,-0.147 -0.009,-0.073 0,0" /></g><g
         transform="translate(109.5645,179.0923)"
         id="g971"><path
           inkscape:connector-curvature="0"
           id="path973"
           style="fill:#231f20;fill-opacity:1;fill-rule:nonzero;stroke:none"
           d="M 0,0 C -0.015,0.267 -0.042,0.442 -0.077,0.554 -0.11,0.388 -0.109,0.212 0,0" /></g><g
         transform="translate(109.7095,248.415)"
         id="g975"><path
           inkscape:connector-curvature="0"
           id="path977"
           style="fill:#231f20;fill-opacity:1;fill-rule:nonzero;stroke:none"
           d="M 0,0 C 0.006,-0.034 0.016,-0.063 0.027,-0.088 0.06,0.083 0.095,0.258 0.133,0.452 Z" /></g><g
         transform="translate(109.4873,179.646)"
         id="g979"><path
           inkscape:connector-curvature="0"
           id="path981"
           style="fill:#231f20;fill-opacity:1;fill-rule:nonzero;stroke:none"
           d="M 0,0 C 0.064,0.319 0.27,0.598 0.141,1.013 0.233,1.212 0.365,0.705 0.408,1.189 0.245,1.625 -0.064,0.968 -0.183,0.199 -0.194,0.179 -0.204,0.17 -0.214,0.156 -0.129,0.189 -0.054,0.17 0,0" /></g><g
         transform="translate(109.2734,179.8022)"
         id="g983"><path
           inkscape:connector-curvature="0"
           id="path985"
           style="fill:#231f20;fill-opacity:1;fill-rule:nonzero;stroke:none"
           d="M 0,0 C -0.025,-0.01 -0.053,-0.024 -0.08,-0.042 -0.062,-0.061 -0.035,-0.048 0,0" /></g><g
         transform="translate(162.6133,248.186)"
         id="g987"><path
           inkscape:connector-curvature="0"
           id="path989"
           style="fill:#231f20;fill-opacity:1;fill-rule:nonzero;stroke:none"
           d="M 0,0 V 0 C -0.002,0.004 -0.006,0.007 -0.008,0.011 -0.178,0.221 -0.088,0.112 0,0" /></g><g
         transform="translate(153.9346,149.145)"
         id="g991"><path
           inkscape:connector-curvature="0"
           id="path993"
           style="fill:#231f20;fill-opacity:1;fill-rule:nonzero;stroke:none"
           d="M 0,0 0.005,-0.002 0.019,-0.01 0.028,-0.015 0.032,-0.017 0.034,-0.018 V -0.019 C 0.001,0.025 -0.027,0.064 -0.06,0.107 -0.065,0.102 -0.065,0.096 -0.067,0.09 -0.044,0.059 -0.022,0.031 0,0" /></g><g
         transform="translate(156.6265,234.8682)"
         id="g995"><path
           inkscape:connector-curvature="0"
           id="path997"
           style="fill:#231f20;fill-opacity:1;fill-rule:nonzero;stroke:none"
           d="M 0,0 C 0.003,0.02 0.007,0.04 0.01,0.06 0.004,0.036 -0.003,0.011 -0.009,-0.016 -0.007,-0.01 -0.003,-0.006 0,0" /></g><g
         transform="translate(157.7832,239.0278)"
         id="g999"><path
           inkscape:connector-curvature="0"
           id="path1001"
           style="fill:#231f20;fill-opacity:1;fill-rule:nonzero;stroke:none"
           d="M 0,0 C -0.017,-0.012 -0.025,-0.015 -0.049,-0.034 -0.033,-0.034 -0.017,-0.021 0,0" /></g><g
         transform="translate(154.2437,220.1436)"
         id="g1003"><path
           inkscape:connector-curvature="0"
           id="path1005"
           style="fill:#231f20;fill-opacity:1;fill-rule:nonzero;stroke:none"
           d="M 0,0 C -0.003,0.051 -0.008,0.101 -0.012,0.153 -0.074,0.162 -0.05,0.095 0,0" /></g><g
         transform="translate(154.0244,150.999)"
         id="g1007"><path
           inkscape:connector-curvature="0"
           id="path1009"
           style="fill:#231f20;fill-opacity:1;fill-rule:nonzero;stroke:none"
           d="M 0,0 C 0.026,-0.013 0.051,-0.027 0.075,-0.041 0.079,-0.017 0.083,0.009 0.087,0.034 0.058,0.034 0.03,0.024 0,0" /></g><g
         transform="translate(154.7266,224.4819)"
         id="g1011"><path
           inkscape:connector-curvature="0"
           id="path1013"
           style="fill:#231f20;fill-opacity:1;fill-rule:nonzero;stroke:none"
           d="M 0,0 C 0.019,0.021 0.032,0.052 0.031,0.104 0.019,0.071 0.012,0.034 0,0" /></g><g
         transform="translate(155.7598,206.9985)"
         id="g1015"><path
           inkscape:connector-curvature="0"
           id="path1017"
           style="fill:#231f20;fill-opacity:1;fill-rule:nonzero;stroke:none"
           d="M 0,0 0.046,-0.107 C 0.033,-0.043 0.018,-0.012 0,0" /></g><g
         transform="translate(154.4521,219.6851)"
         id="g1019"><path
           inkscape:connector-curvature="0"
           id="path1021"
           style="fill:#231f20;fill-opacity:1;fill-rule:nonzero;stroke:none"
           d="M 0,0 C -0.004,-0.031 -0.004,-0.063 -0.01,-0.094 0.003,-0.068 0.005,-0.036 0,0" /></g><g
         transform="translate(154.9849,226.7046)"
         id="g1023"><path
           inkscape:connector-curvature="0"
           id="path1025"
           style="fill:#231f20;fill-opacity:1;fill-rule:nonzero;stroke:none"
           d="M 0,0 C 0.011,0.116 0.009,0.213 0.001,0.291 -0.002,0.177 -0.003,0.075 0,0" /></g><g
         transform="translate(161.4307,249.8486)"
         id="g1027"><path
           inkscape:connector-curvature="0"
           id="path1029"
           style="fill:#231f20;fill-opacity:1;fill-rule:nonzero;stroke:none"
           d="M 0,0 V 0 C -0.09,0.111 -0.158,0.195 0,0" /></g><g
         transform="translate(161.4307,249.8486)"
         id="g1031"><path
           inkscape:connector-curvature="0"
           id="path1033"
           style="fill:#231f20;fill-opacity:1;fill-rule:nonzero;stroke:none"
           d="M 0,0 C 0.035,-0.042 0.082,-0.1 0.14,-0.171 0.115,-0.142 0.055,-0.067 0,0" /></g><g
         transform="translate(155.6543,149.4673)"
         id="g1035"><path
           inkscape:connector-curvature="0"
           id="path1037"
           style="fill:#231f20;fill-opacity:1;fill-rule:nonzero;stroke:none"
           d="m 0,0 v 0.001 0.001 l 0.001,0.003 0.043,0.382 c 0.243,0.644 0.374,0.253 0.183,-0.303 1.54,3.369 2.495,6.506 3.31,9.974 -0.195,0.289 0.28,1.822 -0.009,2.003 0.084,0.151 0.077,-0.003 0.126,-0.114 0.171,2.456 0.282,2.601 0.867,4.777 C 5.555,26.206 4.318,35.298 3.37,44.242 2.386,53.279 1.293,62.261 1.33,71.47 0.834,72.867 1.308,74.781 1.082,76.479 l 0.14,-0.129 c -0.08,1.446 0.31,1.757 0.826,3.474 -0.169,0.057 0.085,0.688 -0.248,0.502 -0.121,0.673 0.605,1.007 0.723,1.902 0.103,0.004 -0.172,0.025 -0.035,0.186 0.258,2.341 0.044,-0.464 1.067,2.281 1.035,3.897 2.411,7.993 3.322,12.165 -0.066,-0.181 -0.243,-0.188 -0.19,0.183 0.263,0.165 0.285,0.539 0.276,0.952 l -0.008,0.637 0.004,0.078 v 0.005 0.003 10e-4 C 6.871,98.831 6.781,98.94 6.951,98.73 6.795,98.922 6.458,99.338 5.792,100.156 H 5.791 L 5.782,100.155 H 5.765 l -0.035,0.001 -0.139,0.008 -0.262,0.059 c 0.028,0.049 0.127,0.075 0.239,0.093 l 0.171,0.022 0.043,0.005 0.02,0.003 h 0.003 c 0.119,-0.146 0.137,-0.168 0.111,-0.136 -0.058,0.072 -0.104,0.129 -0.14,0.171 l -0.003,0.001 -0.04,0.007 -0.159,0.027 -0.321,0.047 -0.623,0.065 c -0.739,0.094 -0.349,-0.057 -0.883,0.099 l -2.621,0.586 c 0.001,0 0.002,0 0.002,0 -1.722,0.015 -3.609,0.318 -4.697,0.013 0.245,0.22 -0.737,0.095 -1.087,0.153 -1.127,-0.68 -3.134,-0.134 -4.497,-0.674 l 0.039,0.107 c -3.92,-0.388 -8.315,-0.647 -12.464,-1.112 v 3.368 c 0,1.21 -0.933,2.192 -2.084,2.192 -1.153,0 -2.088,-0.982 -2.088,-2.192 v -3.484 c -1.537,0.054 -3.118,0.131 -4.669,-0.007 -0.501,-0.08 -0.105,-0.208 -0.511,-0.263 -0.686,0.01 0.011,0.183 -0.255,0.251 -1.341,-0.204 -3.097,0.143 -4.759,0.242 -0.2,-0.076 -0.667,-0.057 -0.522,-0.212 -1.814,0.522 -4.38,0.323 -6.204,0.964 0.285,-0.305 -0.002,-0.328 -0.446,-0.277 -0.175,0.035 -0.237,0.039 -0.259,0.036 0.017,-0.02 -0.029,-0.003 0,0 -0.008,0.011 -0.034,0.031 -0.103,0.071 l -0.169,0.086 -0.02,0.01 -0.006,0.002 -0.003,0.001 c -1.491,-0.732 -1.95,-0.956 -2.018,-0.989 0.077,0.037 0.59,0.29 0.161,0.078 v 0 -0.002 l -0.002,-0.011 -0.01,-0.046 -0.018,-0.089 -0.044,-0.313 c -0.113,-0.384 -0.247,-0.397 -0.31,-0.257 -0.291,-1.484 -0.461,-2.255 -1.013,-3.982 -0.142,-0.838 0.062,-1.127 -0.244,-2.097 -0.471,-0.534 -0.514,-2.052 -0.815,-3.023 0.332,0.184 0.311,-1.122 -0.008,-2.076 l -0.339,0.385 c -0.422,-3.195 -1.281,-7.803 -0.952,-11.546 l -0.255,-0.265 c 0.118,-3.856 -0.243,-7.633 0.295,-11.308 -0.113,-0.995 -0.183,-2.589 -0.157,-3.564 0.242,-1.332 0.233,-1.809 0.587,-2.71 0.036,-0.5 -0.146,-0.809 -0.224,-1.004 -0.021,-1.677 -0.306,-3.306 0.131,-4.641 l -0.201,-0.06 c 0.251,-1.328 0.591,-3.244 0.422,-4.757 0.197,-0.409 0.331,-1.908 0.538,-1.215 0.069,-0.592 -0.327,-0.398 -0.085,-0.993 l -0.318,0.555 c 0.057,-3.371 0.325,-6.203 0.501,-9.447 -0.329,-0.944 0.045,-3.096 -0.196,-4.927 0.152,-1.086 -0.176,-2.935 0.18,-3.762 l -0.206,-0.039 c -0.099,-1.435 -0.295,-3.363 -0.611,-5.215 -0.22,-1.071 0.077,-1.118 0.052,-1.99 l -0.208,-0.016 c -0.012,-0.962 0.25,-1.271 0.376,-1.662 -0.283,-0.692 -0.156,-0.804 -0.437,-1.494 0.032,0.722 -0.065,1.361 -0.243,1.874 -0.318,-1.108 -0.028,-2.375 -0.499,-2.994 -0.307,-0.891 -0.421,-1.617 -0.227,-1.817 0.016,0.008 0.029,0 0.035,-0.037 -0.015,0.008 -0.024,0.025 -0.035,0.037 -0.083,-0.04 -0.274,-0.516 -0.258,-0.045 -0.165,-0.704 -0.278,-1.155 -0.312,-1.606 0.044,0.131 0.137,0.309 0.178,0.465 0.088,-0.401 -0.146,-1.082 0.195,-1.035 0.039,0.378 -10e-4,0.414 0.169,0.858 0.143,-0.255 -0.187,-1.466 -0.463,-1.693 -0.32,-0.265 -0.077,0.923 -0.378,0.423 -0.046,-0.637 -0.06,-1.294 -0.14,-1.932 0.083,0.413 0.353,0.84 0.471,0.618 l 0.125,0.811 0.195,-0.117 c 0.353,1.309 0.86,2.132 1.018,3.547 l -0.351,-0.445 c 0.187,0.796 0.122,1.66 0.533,2.327 0.007,-0.381 0.169,-0.151 0.294,-0.172 -0.003,0.195 -0.048,0.423 0.032,0.636 l 0.299,-0.459 c -0.425,0.475 0.259,2.23 0.254,2.613 l 0.045,-0.13 c 0.364,1.175 -0.236,-0.173 -0.115,0.643 0.166,0.683 0.45,0.185 0.703,0.802 0.206,1.235 0.15,3.387 0.583,4.739 0.033,1.112 -0.037,2.345 -0.137,3.344 0.05,0.985 0.4,-0.076 0.263,0.93 0.129,-0.116 0.276,0.018 0.409,0.102 -0.144,0.14 0.09,1.856 -0.28,1.073 0.146,1.438 0.167,3.056 0.116,4.569 0.019,-0.503 0.264,-0.639 0.388,-0.212 -0.237,0.703 -0.394,1.923 -0.34,3.195 -0.251,-0.028 -0.243,-0.441 -0.49,-0.312 -0.044,0.187 -0.153,0.491 -0.144,0.805 0.254,0.189 0.653,0.142 0.633,1.279 0.417,-0.293 -10e-4,-1.935 0.389,-1.409 0.333,-0.495 0.374,-2.562 0.18,-3.028 0.358,-1.014 0.032,0.798 0.375,0.611 -0.04,0.919 -0.214,1.346 -0.295,2.768 -0.175,0.012 -0.189,-0.467 -0.345,0.181 -0.396,1.25 0.213,1.582 0.221,1.9 l 0.11,-0.619 c 0.096,0.838 -0.143,1.125 -0.159,2.007 0.459,0.26 0.102,-1.408 0.393,-1.726 l 0.316,0.652 c 0.002,1.365 -0.393,0.358 -0.322,1.765 l 0.174,-0.162 -0.137,0.87 c -0.176,0.007 -0.429,-0.191 -0.364,-0.942 -0.47,0.474 -0.091,0.688 -0.223,1.874 -0.27,0.372 0.043,-0.503 -0.209,-0.538 -0.227,-0.129 -0.263,0.689 -0.333,1.282 -0.041,0.974 0.255,0.513 0.408,0.914 0.05,-0.183 0.117,-0.932 -0.033,-0.859 0.314,-1.191 0.508,0.548 0.724,-0.276 0.11,0.918 -0.184,0.877 -0.295,1.338 -0.027,-0.249 -0.264,0.139 -0.345,-0.067 -0.758,1.566 0.462,1.049 0.276,2.573 -0.428,-0.345 -0.704,2.014 -1.142,0.875 -0.095,0.366 -0.218,0.824 -0.186,1.208 0.32,-0.395 0.207,0.692 0.523,-0.018 l -0.018,0.557 0.392,-0.823 c 0.18,0.629 0.349,1.658 0.48,1.993 -0.163,0.796 -0.281,-0.263 -0.389,0.664 0.168,-0.318 0.278,0.26 0.26,0.671 -0.089,-0.83 -0.429,-0.027 -0.518,0.489 -0.03,0.82 0.235,1.483 0.309,1.365 l 0.28,-0.783 c -0.235,0.598 0.109,0.27 -0.002,0.881 -0.171,0.169 -0.438,0.541 -0.658,0.737 -0.089,0.521 0.121,0.898 0.078,1.079 l 0.205,-0.823 c -0.1,1.087 0.454,0.248 0.306,1.364 l -0.244,0.283 c 0.026,0.175 0.096,0.28 0.172,0.21 -0.112,0.239 -0.107,0.752 -0.168,0.992 l 0.154,0.08 c -0.114,0.459 -0.481,1.042 -0.18,1.612 -0.368,-0.454 0.004,-0.564 -0.141,-1.37 -0.261,-0.505 -0.282,0.785 -0.325,0.964 0.4,-0.041 0.021,1.201 0.018,1.764 0.14,0.329 0.201,0.615 0.283,0.817 l -0.266,0.216 c 0.509,0.217 -0.132,1.118 0.018,1.759 0.164,-0.324 0.367,-0.275 0.434,0.172 -0.375,-0.607 -0.488,0.981 -0.745,0.799 0.12,1.142 0.49,-0.264 0.754,0.075 -0.31,0.565 0.183,1.265 -0.187,1.639 -0.132,-0.821 -0.241,0.13 -0.405,0.301 0.048,1.035 0.164,-0.171 0.316,0.557 -0.047,0.432 -0.331,1.002 -0.453,0.334 0.093,0.601 -0.26,1.29 -0.013,1.962 0.245,0.272 0.085,-1.268 0.264,-0.879 0.051,1.435 -0.576,0.733 -0.631,2.077 -0.142,-0.57 -0.553,-0.007 -0.686,0.646 0.132,1.487 0.133,-0.652 0.447,-0.096 l -0.035,0.593 c 0.435,0.806 0.656,-1.773 1.011,-1 l -0.13,0.644 c 0.117,-0.146 0.327,-0.359 0.445,-0.101 -0.305,0.175 -0.018,1.49 -0.069,1.607 -0.236,0.144 0.037,-0.519 -0.148,-0.407 -0.023,0.678 -0.413,1.002 -0.191,2.036 0.135,-0.583 0.349,0.195 0.473,-0.048 0.135,0.498 -0.281,0.177 -0.097,0.894 l 0.141,-0.092 c 0.154,2.732 0.541,5.996 0.334,8.389 0.326,0.371 0.517,1.217 0.946,2.495 -0.195,-0.562 -0.253,0.032 -0.217,0.371 l 0.402,0.566 c 0.339,0.732 0.318,1.805 0.329,2.56 0.083,0.112 0.167,0.132 0.251,0.149 0.344,0.637 0.012,0.752 0.013,1.035 l 0.303,0.398 -0.167,0.147 c 0.055,0.723 0.322,1.635 0.612,1.463 0.006,0.288 0.01,0.573 -0.162,0.25 0.157,0.292 0.335,0.842 0.5,1.475 -0.071,0.029 0.011,0.037 0,0 1.567,-0.638 3.804,-0.69 5.781,-0.911 0.424,0.015 0.3,0.086 0.511,0.161 1.286,-0.527 2.916,-0.149 4.322,-0.381 -0.312,0.163 0.145,0.566 0.925,0.543 0.858,0.29 0.336,-0.414 1.107,-0.589 0.386,0.139 1.109,0.179 1.415,0.161 l -0.024,-0.051 c 0.47,0.161 1.211,0.252 1.774,0.12 l -0.089,-0.023 c 0.457,-0.011 0.993,-0.176 1.471,-0.133 0.044,0.06 0.137,0.099 0.249,0.131 0.418,0.115 1.186,0.083 1.401,0.285 0.059,-0.027 -0.029,-0.053 0.102,-0.107 l 0.032,0.237 0.952,-0.097 c -0.202,-0.103 -0.246,-0.205 -0.508,-0.28 1.019,-0.12 0.331,0.234 0.856,0.389 0.698,0.213 0.669,-0.022 1.015,-0.098 -0.286,-0.137 -0.52,0.022 -0.694,-0.032 -0.392,-0.212 0.431,-0.05 0.451,-0.182 0.133,0.002 0.191,0.228 0.565,0.263 0.048,0.004 0.098,0.007 0.156,0.004 0.45,10e-4 1.494,0.141 1.383,-0.123 0.375,0.16 0.828,0.159 1.107,0.297 -0.365,0.016 -1.038,0.046 -1.127,0.201 0.33,0.054 0.979,0.163 1.089,0.062 l -0.261,-0.084 c 0.261,0.084 1.23,0.08 0.713,0.278 l 0.707,-0.276 c 0.244,0.215 0.933,0.256 1.494,0.343 0.045,-0.259 -0.392,-0.582 0.669,-0.564 l 0.884,0.335 c 0.475,0.065 0.603,0.015 0.541,-0.145 1.638,-0.014 1.616,0.855 2.911,0.726 -0.525,-0.354 -0.055,-0.344 0.503,-0.382 0.023,0.054 0.069,0.161 0.312,0.193 -0.168,0.128 -0.354,-0.247 -0.777,-0.073 -0.149,0.18 0.496,0.171 0.776,0.256 1.231,-0.603 3.837,0.262 5.677,0.113 -0.156,0.361 0.801,0.184 1.161,0.356 -0.086,-0.389 1.008,0.119 1.507,-0.092 l -0.283,0.37 c 1.1,-0.138 1.794,0.571 2.467,0.121 0.607,-0.146 -0.222,-0.264 -0.478,-0.334 0.796,-0.429 2.258,0.174 2.796,-0.469 0.103,0.132 -0.09,0.443 0.645,0.395 0.251,-0.218 0.954,-0.412 1.412,-0.543 L 4.399,97.866 4.419,96.719 C 4.043,96.316 3.832,94.775 3.384,93.838 3.539,93.17 2.758,92.283 3.158,92.059 3.121,92.098 3.027,91.995 2.983,91.941 c 0,-0.417 0.172,-0.818 0.038,-1.301 L 2.794,90.892 C 2.511,91.125 2.311,89.783 2.129,89.561 2.375,89.734 1.91,88.974 2.095,88.866 L 2,88.266 C 1.778,87.338 2.102,88.109 1.778,86.986 1.588,86.352 1.386,86.885 1.493,87.089 1.167,86.607 1.076,86.039 0.982,85.461 1.036,85.672 1.075,85.737 1.085,85.521 1.044,85.52 1.007,85.47 0.972,85.401 0.937,85.188 0.708,84.453 0.728,84.628 0.673,84.444 0.614,84.274 0.543,84.174 L 0.364,84.396 C 0.247,83.998 0.207,82.825 0.311,82.835 c -0.598,-1.52 -0.947,-4.223 -0.979,-5.307 0.007,-0.078 0.009,-0.174 -0.001,-0.291 -0.004,0.076 -0.003,0.177 0.001,0.291 -0.024,0.248 -0.103,0.295 -0.048,0.062 -0.022,-0.565 0.099,-1.216 -0.055,-1.249 0.029,-0.551 -0.217,-0.48 -0.336,-1.309 -0.039,-0.009 0.111,-0.094 0.179,-0.017 0.012,0.033 0.019,0.07 0.032,0.104 0,-0.052 -0.013,-0.083 -0.032,-0.104 -0.494,-1.358 -0.047,-3.156 -0.274,-4.797 0.005,-0.036 0.003,-0.068 -0.01,-0.094 0.005,0.031 0.006,0.063 0.01,0.094 -0.017,0.136 -0.139,0.325 -0.209,0.458 0.083,-1.296 0.213,-2.51 0.493,-3.655 -0.108,0.12 -0.205,0.081 -0.267,0.383 0.018,-0.89 0.119,-1.92 0.34,-2.325 0.089,0.607 -0.126,0.037 -0.127,0.445 0.183,0.642 0.429,-0.491 0.39,-1.076 L -0.63,64.429 c 0.03,-0.887 0.162,-0.92 0.209,-1.802 -0.104,-0.537 -0.088,0.459 -0.22,0.239 -0.355,-0.225 -0.128,-2.033 -0.163,-2.217 0.09,-0.205 0.166,-0.503 0.262,-0.461 0.133,-0.687 -0.199,-0.333 -0.154,-0.81 L 0.105,57.531 C 0.123,57.52 0.138,57.488 0.152,57.424 l -0.047,0.107 c -0.103,0.072 -0.268,-0.637 -0.43,-0.067 0.146,-1.434 0.62,-2.215 0.917,-3.08 C 0.569,53.952 0.834,52.575 0.89,52.1 0.719,51.853 0.867,52.505 0.707,52.598 L 0.543,51.857 c -0.112,0.951 -0.332,-0.153 -0.517,0.35 0.197,-0.752 0.198,-2.584 0.257,-3.737 0.339,0.834 0.358,-1.515 0.722,-1.425 0.206,-1.333 -0.23,-0.701 -0.26,-1.218 0.293,-1.373 0.31,-2.72 0.506,-3.974 0,0 -0.049,-0.027 -0.083,0.04 0.247,-1.146 0.353,-3.039 0.819,-4.162 -0.081,0.044 -0.14,-0.069 -0.232,0.223 -0.008,-1.264 0.5,-0.176 0.415,-1.646 l -0.217,0.314 c 0.264,-0.878 0,-1.757 0.38,-2.753 C 2.235,33.824 2.182,34.047 2.114,34.187 2.286,33.259 2.348,32.197 2.63,31.422 2.52,31.288 2.408,31.406 2.301,31.77 2.213,30.83 2.689,30.785 2.617,29.927 2.616,29.68 2.486,29.212 2.47,29.368 2.659,28.956 2.729,27.666 2.82,27.202 2.713,27.079 2.674,26.739 2.548,26.206 2.636,21.542 2.451,16.781 1.94,12.162 1.459,11.468 1.869,13.275 1.542,12.833 1.852,12.813 1.546,12.04 1.392,10.645 L 1.331,10.6 C 1.248,10.006 0.962,9.733 0.896,9.088 L 0.983,9.087 C 1.011,8.366 0.202,7.744 0.503,7.273 L 0.153,6.838 C 0.34,6.068 -0.212,5.846 -0.259,4.99 L -0.284,5.102 C -0.849,4.144 -0.792,2.803 -1.22,2.53 -1.413,2.165 -1.5,1.825 -1.542,1.566 -1.45,1.568 -1.364,1.465 -1.314,1.36 -1.392,1.405 -1.475,1.448 -1.555,1.491 -1.617,1.042 -1.537,0.905 -1.677,1.48 c 0.016,0.022 0.032,0.039 0.047,0.052 -0.604,0.326 -1.262,0.618 -1.955,0.876 -2.432,0.906 -5.259,1.42 -7.479,1.715 -0.134,0.094 0.062,0.103 0.166,0.147 -1.921,0.1 -3.744,1.201 -5.245,0.794 l -0.545,-0.181 c -0.421,0.193 -0.352,0.38 -0.674,0.541 -0.391,-0.102 -1.719,0.2 -1.97,-0.01 -0.182,0.141 0.103,0.136 0.11,0.217 -0.742,0.156 -1.616,-0.02 -2.356,0.06 -0.116,0.013 -0.232,0.03 -0.341,0.059 l 0.269,0.086 c -1.264,0.285 -2.666,0.481 -4.1,0.585 -3.365,0.244 -6.912,-0.028 -9.309,-0.92 -0.945,-0.242 -0.478,0.303 -0.902,0.208 -3.597,-1.018 -8.069,-0.543 -11.406,-1.345 -2.637,-0.256 -3.467,-1.12 -3.468,-1.129 6.328,0.257 12.293,0.325 18.468,0.858 2.04,0.343 4.713,0.67 6.584,0.478 0.011,0.001 0.022,0 0.033,0 v -25.208 c 0,-1.21 0.935,-2.19 2.088,-2.19 1.151,0 2.084,0.98 2.084,2.19 V 4.306 c 2.506,-0.334 5.003,-0.931 7.672,-1.519 1.813,-0.478 4.078,-1.011 5.823,-1.531 0.987,-0.325 1.919,-0.646 3.031,-0.952 0.539,-0.149 1.052,-0.32 1.669,-0.403 l 0.889,-0.145 0.445,-0.069 0.223,-0.032 0.111,-0.016 0.028,-0.004 c -0.012,0.015 -0.021,0.028 -0.033,0.043 l -0.021,0.014 -0.053,0.056 c -0.002,0.007 0.006,0.013 0.007,0.02 l 0.008,0.017 c 0.015,0.017 0.429,0.041 0.468,0.052 h -0.362 l 0.004,0.001 h 0.001 10e-4 c -0.088,0.118 -0.382,0.511 -0.725,0.971" /></g><g
         transform="translate(222.8652,149.9111)"
         id="g1039"><path
           inkscape:connector-curvature="0"
           id="path1041"
           style="fill:#231f20;fill-opacity:1;fill-rule:nonzero;stroke:none"
           d="m 0,0 v 0.001 0.001 l 0.002,0.003 0.042,0.383 c 0.245,0.643 0.374,0.253 0.183,-0.303 1.54,3.368 2.496,6.506 3.31,9.973 -0.195,0.289 0.282,1.823 -0.01,2.004 0.086,0.15 0.08,-0.003 0.128,-0.115 0.169,2.456 0.28,2.602 0.867,4.777 C 5.556,26.206 4.319,35.298 3.371,44.243 2.386,53.28 1.293,62.261 1.332,71.47 0.835,72.867 1.309,74.782 1.082,76.479 L 1.224,76.35 c -0.082,1.446 0.309,1.757 0.824,3.475 -0.168,0.056 0.086,0.687 -0.247,0.501 -0.121,0.673 0.605,1.007 0.723,1.902 0.103,0.005 -0.172,0.025 -0.037,0.186 0.259,2.341 0.044,-0.463 1.068,2.282 1.036,3.896 2.413,7.992 3.322,12.165 -0.065,-0.182 -0.243,-0.189 -0.19,0.183 0.263,0.164 0.286,0.538 0.278,0.952 l -0.009,0.636 0.004,0.078 0.001,0.006 v 0.003 0 C 6.87,98.831 6.781,98.94 6.951,98.73 6.795,98.923 6.457,99.338 5.792,100.157 L 5.783,100.156 H 5.766 l -0.036,10e-4 -0.138,0.008 -0.262,0.058 c 0.029,0.049 0.126,0.076 0.238,0.093 l 0.173,0.022 0.042,0.005 0.02,0.004 h 0.002 c 0.12,-0.147 0.138,-0.168 0.112,-0.137 -0.06,0.072 -0.105,0.129 -0.139,0.172 H 5.774 l -0.039,0.007 -0.161,0.028 -0.318,0.046 -0.623,0.065 c -0.741,0.095 -0.351,-0.056 -0.886,0.099 l -2.62,0.586 H 1.13 c -1.722,0.016 -3.61,0.318 -4.698,0.013 0.244,0.221 -0.737,0.095 -1.088,0.154 -1.127,-0.68 -3.133,-0.135 -4.494,-0.674 l 0.037,0.107 c -3.235,-0.321 -6.792,-0.554 -10.267,-0.886 v 2.466 c 0,1.21 -0.935,2.192 -2.088,2.192 -1.153,0 -2.089,-0.982 -2.089,-2.192 v -2.782 l -2.192,-0.026 c -1.538,0.053 -3.116,0.13 -4.668,-0.008 -0.504,-0.08 -0.105,-0.207 -0.513,-0.263 -0.684,0.011 0.011,0.183 -0.255,0.251 -1.34,-0.203 -3.096,0.143 -4.758,0.242 -0.201,-0.076 -0.667,-0.057 -0.522,-0.212 -1.814,0.522 -4.381,0.323 -6.204,0.964 0.284,-0.304 -0.002,-0.328 -0.447,-0.277 -0.173,0.035 -0.236,0.04 -0.259,0.037 0.017,-0.02 -0.028,-0.004 0,0 -0.008,0.01 -0.034,0.031 -0.103,0.07 l -0.168,0.086 -0.021,0.011 -0.006,10e-4 -0.003,0.001 c -1.491,-0.731 -1.947,-0.956 -2.017,-0.989 0.078,0.037 0.591,0.29 0.162,0.079 v -0.001 -0.001 l -0.003,-0.012 -0.01,-0.045 -0.019,-0.09 -0.042,-0.312 c -0.114,-0.385 -0.249,-0.397 -0.312,-0.257 -0.291,-1.484 -0.461,-2.255 -1.014,-3.983 -0.139,-0.837 0.065,-1.127 -0.242,-2.097 -0.471,-0.534 -0.515,-2.052 -0.814,-3.023 0.331,0.184 0.309,-1.122 -0.009,-2.076 l -0.34,0.385 c -0.421,-3.195 -1.28,-7.803 -0.952,-11.546 l -0.255,-0.265 c 0.118,-3.855 -0.242,-7.633 0.297,-11.307 -0.113,-0.995 -0.184,-2.589 -0.158,-3.565 0.243,-1.332 0.233,-1.809 0.587,-2.71 0.036,-0.5 -0.146,-0.809 -0.224,-1.004 -0.022,-1.676 -0.306,-3.305 0.13,-4.641 l -0.201,-0.06 c 0.251,-1.328 0.592,-3.244 0.423,-4.757 0.196,-0.409 0.331,-1.908 0.537,-1.215 0.069,-0.592 -0.327,-0.398 -0.084,-0.993 l -0.319,0.555 c 0.058,-3.371 0.325,-6.203 0.502,-9.447 -0.329,-0.944 0.044,-3.096 -0.197,-4.927 0.153,-1.086 -0.175,-2.934 0.181,-3.762 l -0.206,-0.039 c -0.099,-1.435 -0.295,-3.363 -0.612,-5.215 -0.22,-1.071 0.078,-1.118 0.053,-1.989 l -0.208,-0.017 c -0.013,-0.962 0.25,-1.27 0.374,-1.661 -0.281,-0.693 -0.154,-0.805 -0.436,-1.494 0.032,0.722 -0.064,1.36 -0.242,1.873 -0.317,-1.108 -0.029,-2.374 -0.5,-2.993 -0.307,-0.892 -0.421,-1.618 -0.226,-1.818 0.016,0.008 0.028,0 0.034,-0.037 -0.014,0.008 -0.023,0.025 -0.034,0.037 -0.084,-0.04 -0.275,-0.516 -0.259,-0.045 -0.163,-0.704 -0.276,-1.155 -0.311,-1.606 0.043,0.132 0.137,0.31 0.178,0.465 0.087,-0.401 -0.146,-1.082 0.195,-1.035 0.037,0.379 -0.002,0.415 0.169,0.858 0.142,-0.255 -0.186,-1.466 -0.464,-1.692 -0.319,-0.266 -0.077,0.923 -0.375,0.423 -0.048,-0.637 -0.063,-1.294 -0.143,-1.932 0.084,0.412 0.354,0.839 0.472,0.617 l 0.124,0.811 0.197,-0.117 c 0.351,1.309 0.859,2.132 1.017,3.547 l -0.351,-0.445 c 0.188,0.796 0.121,1.66 0.531,2.327 0.007,-0.381 0.17,-0.15 0.295,-0.172 -0.003,0.195 -0.048,0.423 0.032,0.637 l 0.298,-0.46 c -0.424,0.476 0.261,2.23 0.256,2.613 l 0.045,-0.13 c 0.364,1.175 -0.236,-0.172 -0.115,0.644 0.166,0.682 0.449,0.184 0.703,0.802 0.205,1.234 0.149,3.386 0.582,4.739 0.033,1.111 -0.037,2.344 -0.136,3.343 0.049,0.985 0.399,-0.076 0.264,0.93 0.127,-0.116 0.274,0.018 0.408,0.102 -0.144,0.14 0.09,1.856 -0.282,1.074 0.147,1.437 0.169,3.055 0.118,4.568 0.02,-0.503 0.264,-0.639 0.389,-0.212 -0.238,0.703 -0.396,1.923 -0.341,3.195 -0.251,-0.028 -0.244,-0.441 -0.49,-0.311 -0.044,0.186 -0.154,0.49 -0.145,0.805 0.255,0.188 0.654,0.141 0.634,1.278 0.418,-0.292 -0.001,-1.935 0.389,-1.409 0.333,-0.495 0.374,-2.562 0.179,-3.028 0.36,-1.014 0.033,0.798 0.376,0.611 -0.041,0.92 -0.214,1.346 -0.296,2.768 -0.175,0.012 -0.189,-0.467 -0.344,0.181 -0.396,1.25 0.213,1.582 0.221,1.9 l 0.11,-0.619 c 0.096,0.838 -0.143,1.125 -0.16,2.007 0.461,0.261 0.102,-1.408 0.392,-1.726 l 0.316,0.652 c 0.003,1.365 -0.392,0.358 -0.321,1.765 l 0.175,-0.162 -0.138,0.87 c -0.175,0.007 -0.429,-0.191 -0.364,-0.942 -0.47,0.474 -0.09,0.688 -0.222,1.874 -0.27,0.372 0.042,-0.503 -0.209,-0.538 -0.227,-0.129 -0.264,0.689 -0.334,1.282 -0.041,0.975 0.256,0.513 0.41,0.914 0.049,-0.182 0.116,-0.932 -0.035,-0.859 0.314,-1.19 0.508,0.548 0.724,-0.276 0.11,0.919 -0.185,0.877 -0.295,1.338 -0.026,-0.249 -0.263,0.139 -0.343,-0.067 -0.759,1.566 0.461,1.05 0.275,2.573 -0.427,-0.345 -0.705,2.014 -1.143,0.875 -0.094,0.366 -0.216,0.825 -0.186,1.208 0.321,-0.395 0.208,0.692 0.524,-0.018 l -0.019,0.557 0.394,-0.823 c 0.178,0.629 0.348,1.658 0.479,1.993 -0.164,0.796 -0.283,-0.263 -0.39,0.664 0.17,-0.318 0.279,0.26 0.26,0.671 -0.086,-0.83 -0.428,-0.026 -0.517,0.49 -0.03,0.82 0.234,1.483 0.309,1.364 l 0.28,-0.783 c -0.236,0.598 0.108,0.27 -0.003,0.881 -0.17,0.169 -0.438,0.541 -0.659,0.737 -0.087,0.521 0.123,0.898 0.079,1.079 l 0.205,-0.823 c -0.099,1.087 0.454,0.248 0.306,1.364 l -0.243,0.283 c 0.025,0.176 0.095,0.28 0.171,0.21 -0.113,0.239 -0.107,0.753 -0.168,0.992 l 0.156,0.08 c -0.115,0.459 -0.483,1.042 -0.183,1.613 -0.367,-0.455 0.006,-0.565 -0.14,-1.371 -0.261,-0.505 -0.282,0.785 -0.324,0.964 0.4,-0.041 0.022,1.202 0.02,1.764 0.137,0.329 0.198,0.615 0.281,0.817 l -0.267,0.216 c 0.509,0.217 -0.131,1.118 0.019,1.759 0.163,-0.324 0.367,-0.274 0.434,0.172 -0.375,-0.607 -0.489,0.981 -0.746,0.799 0.121,1.142 0.492,-0.264 0.754,0.076 -0.309,0.564 0.184,1.265 -0.186,1.639 -0.131,-0.822 -0.241,0.129 -0.405,0.3 0.046,1.035 0.164,-0.171 0.316,0.558 -0.047,0.432 -0.331,1.002 -0.453,0.333 0.093,0.602 -0.261,1.29 -0.012,1.963 0.243,0.271 0.083,-1.269 0.265,-0.88 0.049,1.436 -0.578,0.733 -0.633,2.077 -0.143,-0.569 -0.554,-0.007 -0.686,0.647 0.131,1.486 0.132,-0.653 0.447,-0.097 l -0.035,0.594 c 0.435,0.805 0.656,-1.774 1.011,-1 l -0.131,0.643 c 0.117,-0.146 0.327,-0.358 0.447,-0.1 -0.307,0.174 -0.019,1.489 -0.072,1.606 -0.235,0.144 0.039,-0.519 -0.146,-0.407 -0.023,0.679 -0.413,1.002 -0.192,2.036 0.135,-0.582 0.35,0.195 0.473,-0.048 0.137,0.498 -0.279,0.177 -0.096,0.894 l 0.14,-0.091 c 0.153,2.731 0.541,5.995 0.334,8.388 0.327,0.372 0.517,1.217 0.946,2.496 -0.194,-0.563 -0.251,0.032 -0.216,0.371 l 0.401,0.565 c 0.341,0.733 0.318,1.806 0.329,2.561 0.084,0.111 0.169,0.131 0.252,0.148 0.344,0.637 0.013,0.753 0.014,1.035 l 0.302,0.398 -0.168,0.147 c 0.056,0.723 0.322,1.636 0.612,1.463 0.007,0.288 0.01,0.573 -0.161,0.25 0.155,0.292 0.335,0.842 0.5,1.475 -0.071,0.029 0.01,0.038 0,0 1.567,-0.638 3.803,-0.69 5.779,-0.911 0.426,0.015 0.302,0.086 0.514,0.161 1.285,-0.526 2.915,-0.149 4.32,-0.38 -0.311,0.162 0.145,0.565 0.927,0.543 0.857,0.289 0.335,-0.415 1.106,-0.59 0.387,0.139 1.109,0.179 1.414,0.162 l -0.024,-0.052 c 0.47,0.161 1.212,0.252 1.775,0.12 l -0.089,-0.023 c 0.457,-0.01 0.992,-0.176 1.47,-0.133 0.044,0.06 0.138,0.1 0.25,0.131 0.417,0.116 1.186,0.083 1.401,0.285 0.057,-0.027 -0.028,-0.052 0.102,-0.107 l 0.032,0.237 0.951,-0.097 c -0.201,-0.103 -0.246,-0.205 -0.508,-0.28 1.019,-0.119 0.331,0.234 0.857,0.389 0.697,0.213 0.67,-0.021 1.014,-0.098 -0.286,-0.136 -0.52,0.023 -0.694,-0.032 -0.392,-0.212 0.431,-0.049 0.451,-0.182 0.133,0.002 0.191,0.228 0.566,0.263 0.048,0.005 0.097,0.007 0.156,0.005 0.45,0 1.493,0.14 1.382,-0.124 0.376,0.16 0.828,0.159 1.108,0.298 -0.366,0.015 -1.037,0.045 -1.129,0.2 0.331,0.054 0.982,0.164 1.09,0.063 l -0.26,-0.084 c 0.26,0.084 1.23,0.079 0.712,0.277 l 0.708,-0.275 c 0.244,0.214 0.933,0.256 1.494,0.342 0.045,-0.259 -0.392,-0.582 0.669,-0.564 l 0.883,0.336 c 0.476,0.064 0.603,0.014 0.541,-0.145 1.638,-0.015 1.616,0.854 2.911,0.725 -0.525,-0.354 -0.056,-0.344 0.504,-0.382 0.023,0.054 0.068,0.161 0.312,0.194 -0.168,0.127 -0.355,-0.248 -0.776,-0.074 -0.151,0.18 0.495,0.171 0.775,0.257 1.231,-0.604 3.837,0.261 5.676,0.113 -0.155,0.36 0.801,0.184 1.162,0.355 -0.086,-0.389 1.007,0.119 1.507,-0.092 l -0.284,0.37 c 1.1,-0.138 1.796,0.571 2.468,0.121 0.606,-0.146 -0.222,-0.264 -0.477,-0.334 0.795,-0.428 2.256,0.174 2.795,-0.468 0.102,0.132 -0.089,0.442 0.644,0.394 0.252,-0.218 0.954,-0.412 1.413,-0.543 L 4.399,97.866 4.421,96.719 C 4.043,96.316 3.831,94.776 3.385,93.838 3.539,93.17 2.759,92.283 3.158,92.059 3.12,92.098 3.028,91.995 2.984,91.941 c 0,-0.417 0.171,-0.817 0.037,-1.3 L 2.793,90.892 C 2.513,91.125 2.312,89.783 2.13,89.561 2.375,89.734 1.91,88.974 2.097,88.866 L 2,88.266 C 1.778,87.338 2.103,88.11 1.778,86.986 1.589,86.352 1.387,86.885 1.493,87.089 1.168,86.608 1.078,86.039 0.981,85.461 1.036,85.672 1.076,85.738 1.085,85.522 1.044,85.52 1.009,85.47 0.973,85.401 0.937,85.188 0.71,84.454 0.728,84.628 0.673,84.445 0.614,84.275 0.543,84.174 L 0.364,84.396 C 0.248,83.998 0.207,82.825 0.31,82.835 c -0.597,-1.519 -0.945,-4.222 -0.977,-5.306 0.007,-0.078 0.009,-0.175 -0.001,-0.291 -0.004,0.075 -0.003,0.177 0.001,0.291 -0.024,0.248 -0.104,0.294 -0.05,0.061 -0.02,-0.564 0.1,-1.215 -0.054,-1.249 0.031,-0.551 -0.217,-0.479 -0.334,-1.308 -0.041,-0.009 0.109,-0.094 0.177,-0.018 0.012,0.033 0.018,0.07 0.033,0.104 0,-0.052 -0.014,-0.083 -0.033,-0.104 -0.493,-1.357 -0.047,-3.155 -0.274,-4.797 0.006,-0.036 0.004,-0.068 -0.009,-0.093 0.006,0.03 0.006,0.062 0.009,0.093 -0.017,0.136 -0.139,0.325 -0.208,0.458 0.082,-1.296 0.213,-2.509 0.491,-3.655 -0.106,0.12 -0.204,0.081 -0.265,0.384 0.018,-0.891 0.119,-1.92 0.34,-2.326 0.089,0.607 -0.127,0.037 -0.127,0.446 0.183,0.641 0.428,-0.492 0.389,-1.076 l -0.047,-0.02 c 0.029,-0.887 0.162,-0.92 0.209,-1.802 -0.104,-0.537 -0.089,0.459 -0.219,0.24 -0.357,-0.226 -0.13,-2.034 -0.165,-2.217 0.09,-0.205 0.167,-0.504 0.263,-0.462 0.133,-0.687 -0.199,-0.332 -0.154,-0.81 l 0.8,-1.846 C 0.122,57.52 0.14,57.489 0.151,57.424 L 0.105,57.532 C 0.002,57.603 -0.162,56.894 -0.324,57.464 -0.178,56.031 0.297,55.249 0.595,54.384 0.568,53.952 0.835,52.575 0.892,52.1 0.719,51.853 0.867,52.505 0.709,52.598 L 0.544,51.857 C 0.432,52.808 0.212,51.705 0.027,52.208 0.224,51.455 0.226,49.623 0.284,48.47 0.622,49.304 0.642,46.955 1.007,47.045 1.212,45.712 0.775,46.344 0.745,45.828 c 0.293,-1.373 0.311,-2.72 0.507,-3.975 0,0 -0.05,-0.026 -0.083,0.04 C 1.415,40.748 1.522,38.855 1.987,37.731 1.906,37.776 1.849,37.662 1.755,37.954 1.749,36.691 2.257,37.779 2.17,36.308 l -0.215,0.314 c 0.262,-0.877 0,-1.756 0.378,-2.752 C 2.235,33.825 2.183,34.047 2.115,34.187 2.286,33.259 2.349,32.198 2.631,31.422 2.521,31.288 2.409,31.407 2.302,31.77 2.214,30.83 2.688,30.785 2.618,29.927 2.617,29.68 2.485,29.212 2.472,29.368 2.66,28.956 2.73,27.666 2.821,27.202 2.714,27.079 2.675,26.739 2.549,26.206 2.636,21.542 2.451,16.781 1.941,12.162 1.46,11.468 1.869,13.275 1.543,12.833 1.853,12.813 1.546,12.04 1.392,10.645 L 1.333,10.6 C 1.248,10.007 0.962,9.733 0.896,9.088 L 0.983,9.087 C 1.013,8.366 0.201,7.744 0.504,7.273 L 0.152,6.839 C 0.341,6.068 -0.212,5.846 -0.258,4.99 L -0.283,5.102 C -0.848,4.145 -0.791,2.804 -1.22,2.53 -1.412,2.165 -1.499,1.825 -1.543,1.566 -1.45,1.568 -1.363,1.465 -1.313,1.36 -1.392,1.405 -1.474,1.448 -1.555,1.491 -1.617,1.042 -1.537,0.905 -1.675,1.48 c 0.015,0.022 0.03,0.039 0.047,0.052 -0.606,0.326 -1.264,0.618 -1.957,0.876 -2.431,0.906 -5.258,1.42 -7.479,1.715 -0.132,0.094 0.063,0.103 0.166,0.147 -1.921,0.1 -3.744,1.202 -5.244,0.794 l -0.545,-0.18 c -0.421,0.192 -0.353,0.38 -0.675,0.541 -0.391,-0.103 -1.718,0.199 -1.969,-0.011 -0.184,0.141 0.103,0.136 0.109,0.218 -0.74,0.155 -1.616,-0.021 -2.355,0.059 -0.118,0.013 -0.233,0.031 -0.343,0.059 l 0.272,0.086 c -1.265,0.285 -2.666,0.481 -4.101,0.585 -3.366,0.244 -6.912,-0.027 -9.31,-0.919 -0.945,-0.243 -0.478,0.302 -0.903,0.208 -3.597,-1.019 -8.068,-0.544 -11.405,-1.346 -2.636,-0.256 -3.466,-1.12 -3.467,-1.129 6.328,0.257 12.293,0.326 18.467,0.859 2.041,0.342 4.713,0.669 6.585,0.477 0.011,0.001 0.022,0 0.033,0 l 2.192,-0.204 v -25.681 c 0,-1.209 0.936,-2.191 2.089,-2.191 1.153,0 2.088,0.982 2.088,2.191 V 3.953 c 1.781,-0.328 3.584,-0.749 5.474,-1.166 1.813,-0.477 4.079,-1.011 5.825,-1.53 0.985,-0.325 1.918,-0.647 3.029,-0.953 0.539,-0.149 1.053,-0.32 1.669,-0.403 l 0.89,-0.145 0.445,-0.069 0.222,-0.032 0.111,-0.015 0.028,-0.004 c -0.011,0.014 -0.02,0.027 -0.032,0.042 l -0.021,0.014 -0.053,0.056 c -0.003,0.007 0.006,0.013 0.008,0.02 l 0.008,0.017 c 0.012,0.018 0.426,0.041 0.468,0.053 h -0.363 l 0.004,0.001 h 10e-4 0.001 C -1.755,-0.044 -2.048,0.35 -2.392,0.81" /></g><g
         transform="translate(103.5596,159.1855)"
         id="g1043"><path
           inkscape:connector-curvature="0"
           id="path1045"
           style="fill:#231f20;fill-opacity:1;fill-rule:nonzero;stroke:none"
           d="M 0,0 C 0.106,-0.131 0.408,0.158 0.58,0.169 0.602,0.815 0.236,0.147 0,0" /></g><g
         transform="translate(109.2954,179.1777)"
         id="g1047"><path
           inkscape:connector-curvature="0"
           id="path1049"
           style="fill:#231f20;fill-opacity:1;fill-rule:nonzero;stroke:none"
           d="m 0,0 c -0.029,-0.064 -0.154,-0.326 -0.109,-0.356 0.06,-0.121 0.14,-0.086 0.135,-0.347 C 0.124,-0.504 0.006,-0.256 0,0" /></g><g
         transform="translate(109.6895,182.2231)"
         id="g1051"><path
           inkscape:connector-curvature="0"
           id="path1053"
           style="fill:#231f20;fill-opacity:1;fill-rule:nonzero;stroke:none"
           d="M 0,0 C -0.012,0.669 -0.117,1.803 -0.26,1.884 Z" /></g><g
         transform="translate(109.9985,189.0366)"
         id="g1055"><path
           inkscape:connector-curvature="0"
           id="path1057"
           style="fill:#231f20;fill-opacity:1;fill-rule:nonzero;stroke:none"
           d="M 0,0 C 0.073,-0.114 0.118,-0.303 0.194,-0.259 0.183,0.313 0.112,0.428 0,0" /></g><g
         transform="translate(109.7661,190.0962)"
         id="g1059"><path
           inkscape:connector-curvature="0"
           id="path1061"
           style="fill:#231f20;fill-opacity:1;fill-rule:nonzero;stroke:none"
           d="M 0,0 C 0.011,0.032 0.023,0.064 0.036,0.095 0.013,0.092 0.003,0.052 0,0" /></g><g
         transform="translate(109.6572,189.3774)"
         id="g1063"><path
           inkscape:connector-curvature="0"
           id="path1065"
           style="fill:#231f20;fill-opacity:1;fill-rule:nonzero;stroke:none"
           d="M 0,0 C 0.203,-0.105 0.089,0.486 0.109,0.719 0.042,0.543 -0.013,0.346 0,0" /></g><g
         transform="translate(109.6914,200.0078)"
         id="g1067"><path
           inkscape:connector-curvature="0"
           id="path1069"
           style="fill:#231f20;fill-opacity:1;fill-rule:nonzero;stroke:none"
           d="M 0,0 C 0.222,-0.187 -0.117,0.771 -0.015,1.04 -0.166,0.797 -0.023,0.252 0,0" /></g><g
         transform="translate(109.4639,205.0435)"
         id="g1071"><path
           inkscape:connector-curvature="0"
           id="path1073"
           style="fill:#231f20;fill-opacity:1;fill-rule:nonzero;stroke:none"
           d="m 0,0 c -0.02,0.246 -0.136,0.549 -0.194,0.255 0.045,-0.182 0.021,-0.248 0.015,-0.406 z" /></g><g
         transform="translate(153.8809,248.0767)"
         id="g1075"><path
           inkscape:connector-curvature="0"
           id="path1077"
           style="fill:#231f20;fill-opacity:1;fill-rule:nonzero;stroke:none"
           d="m 0,0 -0.067,-0.156 0.483,0.078 z" /></g><g
         transform="translate(154.0225,216.9087)"
         id="g1079"><path
           inkscape:connector-curvature="0"
           id="path1081"
           style="fill:#231f20;fill-opacity:1;fill-rule:nonzero;stroke:none"
           d="M 0,0 C 0.021,0.09 0.25,-0.069 0.154,0.465 0.181,-0.176 -0.02,0.485 0,0" /></g><g
         transform="translate(156.5522,196.3804)"
         id="g1083"><path
           inkscape:connector-curvature="0"
           id="path1085"
           style="fill:#231f20;fill-opacity:1;fill-rule:nonzero;stroke:none"
           d="m 0,0 -0.305,0.021 0.021,-0.162 z" /></g><g
         transform="translate(120.1582,191.0718)"
         id="g1087"><path
           inkscape:connector-curvature="0"
           id="path1089"
           style="fill:#231f20;fill-opacity:1;fill-rule:nonzero;stroke:none"
           d="m 0,0 c 0,0 0.539,0.132 1.192,0.625 0,0 1.844,-0.952 1.844,-2.277 0,-0.065 -0.031,-1.468 -0.772,-1.678 0,0 -2.071,0.036 -2.276,2.02 0,0 -0.105,0.423 0.012,1.31 m 0.215,-9.173 c 0,0 -1.747,1.656 -0.059,2.217 0,0 2.135,0.279 2.623,-0.187 0,0 2.759,-2.148 0.134,-2.988 0,0 -0.535,-0.234 0.09,-0.513 0,0 2.045,-2.057 0.31,-4.203 0,0 -0.402,-0.156 -0.884,-0.125 0,0 -0.982,-0.948 -1.116,-1.228 0,0 3.958,-1.869 5.869,-3.223 0,0 5.38,-1.448 6.092,-1.868 0,0 11.339,-3.219 13.918,-2.66 0,0 2.224,-0.747 0.267,-1.727 0,0 -0.834,-0.643 -2.18,-1.11 0,0 -0.322,-1.645 -1.945,-1.307 0,0 -14.462,3.863 -18.642,7.038 0,0 -3.573,2.746 -4.892,2.856 0,0 -0.384,0.129 -0.737,-0.328 0,0 -1.517,-1.124 -2.025,-0.065 0,0 -0.506,0.969 0.746,1.362 0,0 0.66,0.938 2.514,1.078 0,0 1.34,1.639 1.612,2.435 0,0 0.206,1.07 -0.314,1.45 -0.549,0.401 -1.443,1.253 -1.381,3.096 m 13.502,53.421 c 0.749,0.163 2.378,-0.887 2.824,-1.471 0,0 0.51,-1.166 -0.846,-1.913 0,0 -2.267,-1.471 -3.267,-1.565 0,0 0.377,-0.444 0.621,-0.513 0,0 5.138,0.279 6.694,-0.187 0,0 2.044,-0.584 1.289,-2.242 0,0 -5.004,-2.218 -6.247,-1.75 0,0 -0.311,0.071 1.423,1.563 0,0 0.822,0.608 -3.825,0.327 l 0.089,-5.626 c 0,0 -0.137,-0.867 -0.32,-1.385 l -0.214,-2.163 8.183,0.187 c 0,0 0.288,0.28 0.822,0 0,0 1.578,-1.027 1.535,-1.587 0,0 0.431,-1.307 -1.602,-1.307 l -8.249,0.115 c 0,0 3.025,-3.405 5.181,-4.011 0,0 5.493,-1.774 6.181,-2.498 0,0 1.601,-0.232 1.645,-1.284 0,0 0.112,-0.677 -0.844,-0.769 l -5.315,-0.351 c 0,0 -7.18,5.509 -7.403,6.327 l -0.444,-7.237 c 0,0 -1.267,-2.429 -2.27,-0.912 0,0 -1.533,1.939 -1.689,1.961 0,0 -0.465,0.164 -0.711,0.514 0,0 -0.023,0.024 0.711,-0.117 0,0 0.202,0.444 -0.133,0.701 0,0 -1.311,1.33 0.979,-0.139 0,0 0.288,0.046 0,0.349 l -0.579,0.77 c 0,0 1.357,-0.934 1.513,-0.77 l 0.112,5.206 c 0,0 -6.515,-5.486 -6.85,-5.673 -0.334,-0.188 -3.379,-0.444 -3.379,-0.444 0,0 2.42,1.938 2.667,1.937 0.09,0 1.292,1.308 3.336,2.5 0,0 3.38,3.685 3.247,3.918 -0.134,0.233 -5.914,-0.047 -6.738,-0.56 -0.823,-0.512 -2.844,-0.652 -2,1.586 0.844,2.244 1.222,1.471 2.357,1.331 1.132,-0.139 3.713,0.118 3.713,0.118 l 3.891,0.116 0.36,2.687 c 0,0 0.351,0.689 0.528,3.127 L 8.425,31.012 5.292,30.568 c 0,0 1.488,0.466 4.623,5.486 0,0 0.645,0.654 -1.556,0.28 0,0 -4.692,-0.537 -5.291,-0.91 0,0 -1.957,-0.466 -1.912,1.167 0,0 -0.489,1.19 1.844,1.261 0,0 5.803,0 6.004,0.304 0,0 0.334,0.209 -0.244,0.606 0,0 -0.978,0.864 0.178,1.518 l 1.912,-0.071 c 0,0 0.823,1.075 0.843,1.495 0,0 -2.933,-0.655 -3.223,-0.49 -0.29,0.162 -1.512,0.7 -1.668,1.75 0,0 -0.133,0.747 0.801,0.841 0,0 4.291,0.046 6.114,0.443" /></g><g
         transform="translate(129.874,175.582)"
         id="g1091"><path
           inkscape:connector-curvature="0"
           id="path1093"
           style="fill:#231f20;fill-opacity:1;fill-rule:nonzero;stroke:none"
           d="m 0,0 c 0.135,-0.032 0.34,-0.068 0.585,-0.104 0.492,-0.077 1.151,-0.159 1.811,-0.235 1.009,-0.116 2.015,-0.218 2.435,-0.26 L 4.673,7.556 3.46,7.572 C 3.413,7.575 3.366,7.577 3.32,7.577 2.001,7.577 1.138,7.07 0.707,6.732 L 2.292,6.652 2.345,6.594 C 2.85,6.016 3.001,5.554 3.001,5.216 3.001,4.873 2.846,4.686 2.825,4.667 L 2.777,4.612 2.708,4.605 C 2.706,4.605 0.634,4.414 0.313,4.377 0.307,4.364 0.298,4.345 0.29,4.323 0.264,4.243 0.238,4.122 0.223,3.999 0.209,3.894 0.198,3.789 0.191,3.703 L 1.484,3.669 1.524,3.648 C 2.473,3.094 2.479,1.821 2.486,1.651 L 2.499,1.517 2.379,1.458 C 0.988,0.793 0.455,0.616 0.217,0.556 -0.141,0.45 -0.127,0.355 -0.141,0.247 -0.142,0.164 -0.117,0.107 -0.098,0.024 -0.073,0.016 -0.04,0.008 0,0 m 4.472,-2.809 -4.123,0.126 c -0.245,-0.126 -1.414,-0.714 -2.421,-0.72 -0.679,-0.024 -1.366,0.343 -1.433,1.298 -0.034,0.086 -0.116,0.32 -0.117,0.62 -0.013,0.552 0.323,1.306 1.543,1.604 l 0.437,8.811 0.716,0.792 -2.162,-0.215 c -0.153,-0.065 -0.88,-0.349 -2.057,-0.349 -0.053,0 -0.103,0.002 -0.149,0.002 h -0.038 l -0.035,0.013 c -0.027,0.007 -0.954,0.438 -0.954,1.782 0,0.19 0.017,0.396 0.059,0.619 0.076,0.307 0.557,1.4 1.523,1.44 0.067,0 0.141,-0.004 0.216,-0.02 0,0.002 0.014,0 0.042,0 0.027,-0.002 0.067,-0.002 0.117,-0.002 0.578,0 2.274,0.043 2.791,0.056 l 0.003,0.022 c -0.018,0.02 -0.044,0.045 -0.072,0.075 -0.078,0.08 -0.186,0.192 -0.302,0.339 -0.232,0.291 -0.499,0.723 -0.66,1.322 -0.006,0.022 -0.042,0.152 -0.042,0.451 0,0.296 0.034,0.758 0.165,1.443 0.1,0.511 0.564,0.747 0.996,0.743 0.309,0 0.629,-0.11 0.863,-0.353 0.026,-0.044 1.912,-1.132 2.78,-3.658 l 0.588,0.016 c 0.06,0.048 0.218,0.177 0.5,0.51 0.377,0.446 0.956,1.233 1.728,2.539 0.008,0.006 0.301,1.24 1.375,1.269 0.378,-0.002 0.82,-0.172 1.337,-0.592 C 7.697,17.16 8.22,16.756 8.227,16.049 8.215,15.284 7.604,14.374 5.389,13.437 l 3.9,-0.054 0.05,-0.04 c 0.032,-0.022 0.677,-0.584 0.675,-2.006 0,-0.237 -0.017,-0.498 -0.058,-0.785 L 9.934,10.395 3.173,10.169 2.186,9.101 5.678,9.093 C 5.781,9.155 6.033,9.283 6.366,9.284 6.838,9.291 7.441,8.993 7.867,8.006 7.919,7.81 7.892,6.807 7.902,5.234 7.902,1.968 7.883,-3.109 7.877,-3.158 7.854,-3.162 7.464,-5.032 6.221,-5.195 6.187,-5.192 4.652,-5.012 4.472,-2.809" /></g><g
         transform="translate(199.3242,229.1001)"
         id="g1095"><path
           inkscape:connector-curvature="0"
           id="path1097"
           style="fill:#231f20;fill-opacity:1;fill-rule:evenodd;stroke:none"
           d="M 0,0 C 0.05,0 0.121,0 0.146,0.025 0.269,-0.05 0.412,-0.102 0.508,-0.178 0.703,-0.153 0.8,-0.433 0.992,-0.306 1.018,-0.509 1.236,-0.483 1.31,-0.636 L 1.504,-0.687 C 1.285,-0.738 1.551,-0.89 1.382,-0.992 1.406,-1.221 1.6,-1.399 1.6,-1.628 1.551,-1.755 1.721,-1.959 1.454,-2.036 1.504,-2.341 1.187,-2.086 1.066,-2.238 0.703,-2.264 0.34,-2.442 -0.073,-2.519 c -0.362,-0.101 -0.7,-0.177 -1.065,-0.33 -0.144,-0.128 -0.46,-0.076 -0.604,-0.153 -0.098,-0.229 -0.388,-0.203 -0.56,-0.355 -0.143,0.051 -0.24,-0.127 -0.458,-0.076 -0.293,-0.177 -0.533,-0.255 -0.823,-0.306 -0.075,0.051 -0.171,0.051 -0.194,0.101 -0.507,-0.127 -0.872,0.357 -1.26,0.51 -0.218,0.279 -0.557,0.482 -0.824,0.686 0.025,0.178 -0.072,0.356 -0.242,0.457 H -6.15 v 0.102 c 0.118,-0.025 0.071,0.128 0.118,0.153 0.413,0.102 0.754,0.356 1.187,0.408 0.583,0.05 1.019,0.432 1.601,0.508 0.799,0.331 1.646,0.687 2.471,0.891 0.095,0.151 0.363,0.05 0.531,0.075 C -0.169,0.127 -0.073,0.077 0,0" /></g><g
         transform="translate(193.9463,228.6924)"
         id="g1099"><path
           inkscape:connector-curvature="0"
           id="path1101"
           style="fill:#231f20;fill-opacity:1;fill-rule:evenodd;stroke:none"
           d="M 0,0 C 0.025,0.128 0.1,0.179 0.17,0.28 0.17,0.255 0.073,0.051 0,0" /></g><g
         transform="translate(212.7441,224.8267)"
         id="g1103"><path
           inkscape:connector-curvature="0"
           id="path1105"
           style="fill:#231f20;fill-opacity:1;fill-rule:evenodd;stroke:none"
           d="M 0,0 C 0.096,-0.203 0.363,-0.228 0.559,-0.279 0.363,-0.178 0.194,-0.102 0,0 m -24.126,2.137 c -0.071,-0.128 -0.194,-0.306 -0.315,-0.383 -0.048,-0.151 -0.29,-0.227 -0.193,-0.405 l 0.437,0.432 c -0.024,0.152 0.218,0.204 0.168,0.356 z m 5.669,2.467 c 0.218,-0.051 0.122,0.204 0.218,0.28 -0.074,-0.103 -0.17,-0.178 -0.218,-0.28 m 2.303,9.386 c 0.239,-0.129 0.579,-0.356 0.773,-0.612 0.266,-0.152 0.437,-0.534 0.533,-0.813 -0.048,-0.103 0.096,-0.229 -0.024,-0.331 0.096,-0.28 0.17,-0.407 0.218,-0.712 -0.048,-0.026 -0.098,-0.051 -0.122,-0.077 0.048,-0.077 0.024,-0.127 0.024,-0.203 0.848,-0.381 1.648,-0.84 2.324,-1.501 0.195,-0.458 0.657,-0.66 0.949,-0.991 0.458,-0.611 1.184,-1.196 1.766,-1.603 V 7.096 C -9.18,6.663 -8.575,6.104 -7.969,5.749 L -7.993,5.672 C -7.729,5.57 -7.63,5.265 -7.315,5.239 -7.194,5.063 -6.977,4.959 -6.806,4.833 -6.735,4.63 -6.492,4.73 -6.421,4.501 -6.323,4.553 -6.272,4.477 -6.272,4.425 -5.812,4.171 -5.618,3.891 -5.158,3.638 -4.82,3.434 -4.627,3.205 -4.312,3.053 -4.264,2.899 -4.117,2.951 -4.021,2.899 -3.755,2.696 -3.513,2.467 -3.198,2.365 -3.174,2.137 -2.836,2.11 -2.69,1.933 c 0.339,0.128 0.606,-0.229 0.848,-0.356 0.074,0.026 0.17,-0.05 0.17,-0.127 0.461,-0.431 1.018,-0.584 1.453,-1.043 0.243,-0.229 0.582,-0.356 0.848,-0.509 -0.097,-0.254 0.219,-0.126 0.315,-0.254 -0.145,0 -0.29,0.077 -0.385,0.05 0.07,-0.254 0.847,-0.126 0.41,-0.584 -0.193,-0.331 -0.557,0.28 -0.606,-0.128 -0.217,0.128 -0.485,0.255 -0.726,0.255 -0.048,-0.05 -0.026,-0.127 -0.048,-0.176 l 0.122,-0.079 c -0.269,0.103 -0.73,0.255 -0.994,0.509 -0.171,0 -0.268,0.102 -0.389,0.026 0.169,-0.254 0.51,-0.33 0.775,-0.456 -0.241,-0.052 -0.46,0.227 -0.727,0.126 -0.12,-0.051 -0.265,0.229 -0.361,0.076 l 0.07,-0.076 h -0.24 c 0.144,-0.126 -0.196,-0.153 -0.097,-0.281 -0.073,0.026 -0.243,0 -0.293,-0.05 -0.069,-0.178 -0.19,-0.152 -0.313,-0.305 -0.243,0 -0.29,-0.306 -0.535,-0.23 -0.12,0.027 -0.24,-0.177 -0.338,0.027 -0.411,-0.128 -0.679,0.227 -1.065,0.1 -0.192,0.127 -0.437,0.356 -0.678,0.356 -0.17,-0.076 -0.193,0.23 -0.364,0.128 -0.192,0.381 -0.557,0.458 -0.774,0.789 -0.194,0.228 -0.508,0.534 -0.798,0.635 -0.026,0.229 -0.268,0.279 -0.437,0.485 -0.171,-0.027 -0.219,0.201 -0.413,0.253 -0.17,0.177 -0.315,0.382 -0.532,0.509 -0.437,0.382 -0.994,0.762 -1.431,1.195 -0.315,0.432 -0.677,0.864 -1.064,1.297 0.022,0.128 -0.099,0.178 -0.17,0.256 -0.945,1.194 -1.817,2.441 -2.615,3.89 -0.438,0.534 -0.946,1.246 -1.672,1.296 -0.292,-0.178 -0.267,-0.508 -0.363,-0.787 -0.097,-0.178 -0.123,-0.433 -0.147,-0.637 -0.049,-0.127 -0.265,0 -0.265,-0.152 0.022,-0.051 0.046,-0.051 0.097,-0.076 l -0.17,-0.255 c 0,0.052 -0.048,0.052 -0.072,0.052 0.047,-0.178 -0.074,-0.356 -0.146,-0.484 -0.074,-0.102 -0.147,0.051 -0.193,-0.076 -0.025,-0.127 0.046,-0.127 -0.075,-0.229 0,0.025 0,0.025 -0.024,0.025 -0.024,0 -0.024,-0.052 -0.024,-0.076 0,-0.05 0.048,-0.05 0.048,-0.05 0,-0.179 -0.193,-0.382 -0.193,-0.586 -0.168,0 -0.073,-0.253 -0.243,-0.204 L -17.61,5.749 C -17.73,5.85 -17.73,5.62 -17.78,5.57 -17.805,5.367 -17.974,5.315 -18.02,5.086 -18.117,4.833 -18.265,4.578 -18.409,4.351 h -0.071 c 0,0.074 0,0.15 -0.026,0.202 -0.266,-0.076 -0.192,-0.484 -0.436,-0.585 -0.097,-0.026 -0.049,-0.127 -0.121,-0.127 h -0.025 c -0.097,-0.153 -0.241,-0.306 -0.411,-0.432 -0.096,-0.382 -0.436,-0.458 -0.606,-0.787 -0.364,-0.129 -0.314,-0.637 -0.678,-0.714 -0.073,-0.127 -0.241,-0.204 -0.316,-0.305 -0.12,-0.102 -0.239,-0.332 -0.41,-0.332 -0.606,-0.686 -1.333,-0.991 -1.913,-1.577 -0.39,-0.304 -0.727,-0.558 -1.187,-0.762 -0.364,-0.254 -0.849,-0.357 -1.286,-0.535 -0.314,-0.101 -0.557,-0.305 -0.918,-0.33 0.047,0.077 0.168,0.077 0.29,0.102 0.386,0.228 0.944,0.356 1.334,0.687 -0.195,0.076 -0.415,-0.077 -0.583,-0.152 h -0.025 c 0.072,0.1 0.266,0.152 0.29,0.278 -0.167,0.205 -0.337,-0.05 -0.531,-0.076 -0.556,-0.458 -1.261,-0.585 -1.721,-1.043 -0.218,-0.075 -0.434,-0.203 -0.679,-0.227 0,0.024 -0.022,0.024 -0.022,0.024 0.143,0.052 0.267,0.152 0.337,0.28 l -0.098,0.152 c 0.123,0.178 0.439,0.052 0.511,0.333 0,-0.028 0.048,-0.052 0.072,-0.028 0.025,-0.024 0.074,0 0.121,0.028 0.387,0.227 0.606,0.584 0.923,0.888 0.168,-0.025 0.24,0.255 0.385,0.331 l -0.048,0.026 0.048,-0.026 c 0.437,0.509 1.212,1.068 1.575,1.653 l -0.047,0.078 c -0.292,-0.333 -0.656,-0.612 -0.898,-0.917 -0.242,-0.152 -0.459,-0.381 -0.581,-0.636 -0.024,0.026 -0.049,0.076 -0.097,0.051 -0.026,-0.025 -0.072,-0.051 -0.072,-0.101 -0.437,-0.382 -0.849,-0.941 -1.261,-1.247 0.534,0.662 1.091,1.196 1.574,1.933 l 0.05,-0.051 c 0.241,0.28 0.486,0.586 0.702,0.916 l 0.025,-0.026 c 0.144,0.28 0.386,0.457 0.581,0.688 0.217,-0.026 0.098,0.329 0.291,0.38 0.047,0.153 0.17,0.257 0.364,0.306 0.12,0.203 0.169,0.407 0.387,0.534 0.048,-0.077 0.097,0 0.143,0.051 0.025,0.05 0.123,0.127 0.051,0.203 h -0.051 c 0.074,0.076 0.123,0.229 0.219,0.28 0.025,-0.051 -0.072,-0.077 0,-0.127 0.34,0.279 0.462,0.661 0.776,0.992 0.242,0.407 0.509,0.864 0.822,1.297 0.025,0.228 0.219,0.56 0.414,0.636 0.097,0.458 0.508,0.789 0.63,1.22 l 0.143,0.078 c -0.072,0 -0.047,0.1 -0.022,0.151 0.022,0 0.072,0 0.12,0.027 -0.098,0.151 0.048,0.228 0.075,0.33 0.117,0.026 -0.027,0.101 0.071,0.178 0.193,0.178 0.265,0.433 0.411,0.61 0.992,1.297 1.575,2.772 2.375,4.247 0,0.178 0.072,0.306 0,0.459 0.072,0.253 0.313,0.279 0.482,0.407 0.317,-0.052 0.68,0.127 0.803,-0.254" /></g><g
         transform="translate(200.1484,222.3594)"
         id="g1107"><path
           inkscape:connector-curvature="0"
           id="path1109"
           style="fill:#231f20;fill-opacity:1;fill-rule:evenodd;stroke:none"
           d="M 0,0 V -0.05 C -0.193,-0.126 -0.412,-0.204 -0.604,-0.176 -0.872,-0.28 -1.355,-0.331 -1.55,-0.382 l -0.048,0.051 c -0.097,-0.178 -0.171,0.078 -0.218,-0.127 -0.121,0.153 -0.29,-0.077 -0.389,0.127 l -0.047,-0.075 c -0.219,-0.052 -0.56,-0.052 -0.775,-0.129 v 0.077 c -0.22,-0.279 -0.727,-0.151 -0.874,-0.431 -0.267,-0.103 -0.387,-0.407 -0.654,-0.382 -0.216,0.05 -0.507,-0.077 -0.725,-0.203 -0.048,-0.077 -0.144,-0.23 0,-0.28 -0.048,-0.179 0.12,-0.382 0.194,-0.559 0.315,-0.127 0.168,-0.586 0.315,-0.815 0.364,-0.661 -0.268,-1.222 0.169,-1.806 0.314,0.051 0.629,0.102 0.92,0.204 0.607,0.126 1.284,0.38 1.939,0.356 0.339,0.126 0.701,0.076 1.04,0.126 0.291,0.358 0.341,0.89 0.462,1.323 0.024,0.305 0.241,0.56 0.29,0.865 0.313,0.56 0.242,1.195 0.459,1.729 C 0.485,-0.176 0.485,-0.025 0.291,-0.025 0.193,-0.153 0.097,0.025 0,0 M 1.549,2.366 C 1.744,2.34 1.769,2.188 1.938,2.111 2.034,1.806 2.373,1.857 2.495,1.577 2.641,1.577 2.737,1.424 2.81,1.323 3.003,1.374 2.932,1.042 3.1,1.019 3.537,0.737 3.779,0.358 3.974,-0.076 4.14,-0.204 4.14,-0.458 4.311,-0.609 c -0.047,-0.101 0.097,-0.18 0,-0.256 L 4.238,-0.839 C 4.14,-0.992 4.094,-1.221 4.14,-1.398 4.07,-1.5 3.948,-1.449 3.924,-1.577 3.9,-1.551 3.852,-1.5 3.804,-1.5 3.659,-1.704 3.729,-2.136 3.441,-2.112 3.367,-2.365 3.173,-2.467 3.149,-2.721 3.028,-2.925 2.932,-3.178 2.737,-3.306 2.714,-3.433 2.664,-3.535 2.617,-3.663 2.567,-3.611 2.495,-3.585 2.445,-3.585 2.276,-3.916 2.01,-4.094 1.769,-4.298 1.938,-4.476 2.18,-4.679 2.133,-4.96 c 0.025,-0.229 -0.099,-0.508 0,-0.686 H 2.18 C 2.084,-5.801 2.084,-6.208 1.769,-6.106 1.744,-6.155 1.744,-6.233 1.673,-6.233 1.406,-6.081 1.381,-6.489 1.139,-6.362 c -0.072,-0.177 -0.243,0 -0.388,-0.05 -0.193,0.05 -0.339,0.179 -0.509,0.05 -0.097,0.207 -0.242,-0.127 -0.363,0.026 -0.12,0.128 -0.241,-0.153 -0.363,0.051 -0.12,-0.102 -0.097,0.104 -0.219,0.077 0,-0.154 -0.194,-0.05 -0.216,-0.154 -0.268,0 -0.461,0.104 -0.727,0.129 -0.437,0 -0.896,-0.025 -1.308,-0.129 -0.172,0.129 -0.34,-0.076 -0.534,-0.05 -0.194,-0.306 -0.655,-0.178 -0.994,-0.381 -0.168,-0.079 -0.459,-0.205 -0.604,-0.306 0.047,-0.026 0.047,-0.077 0.047,-0.128 -0.266,-0.024 -0.362,-0.279 -0.653,-0.279 -0.193,-0.178 -0.34,0.102 -0.535,0.128 -0.096,0.228 -0.314,0.38 -0.241,0.635 -0.799,1.35 -0.702,2.979 -1.136,4.378 -0.196,0.382 -0.292,0.865 -0.584,1.196 -0.169,0.177 -0.218,0.407 -0.435,0.533 0.023,0.052 0.023,0.127 -0.072,0.178 h -0.024 c 0.096,0.052 0.145,-0.077 0.216,0.052 -0.071,0.075 -0.12,0.202 -0.267,0.202 -0.022,0.154 0.124,0.331 0.17,0.459 0.171,-0.026 0.268,0 0.436,0.05 -0.024,-0.05 0.025,-0.05 0.025,-0.076 0.145,-0.076 0.194,0.129 0.316,0 0.24,0.255 0.435,0 0.726,0.153 0.219,0.051 0.484,0.051 0.629,0.203 0.751,0.28 1.648,0.457 2.447,0.738 0.533,0.076 1.114,0.178 1.623,0.331 0.339,0.051 0.824,0.178 1.139,0.254 0.34,0.179 0.63,0.203 0.969,0.229 C 0.024,2.188 0.388,2.111 0.532,2.467 0.654,2.596 0.798,2.67 0.968,2.722 1.21,2.67 1.381,2.518 1.549,2.366" /></g><g
         transform="translate(193.9219,212.6157)"
         id="g1111"><path
           inkscape:connector-curvature="0"
           id="path1113"
           style="fill:#231f20;fill-opacity:1;fill-rule:evenodd;stroke:none"
           d="m 0,0 c -0.021,-0.104 0.024,-0.128 0.05,-0.178 0.315,0.05 0.292,-0.279 0.58,-0.279 0.195,-0.23 0.316,-0.46 0.558,-0.611 0.364,0 0.413,-0.383 0.677,-0.535 0,-0.076 0.049,-0.177 0.124,-0.177 0.579,-0.052 1.04,0.329 1.547,0.43 L 3.587,-1.4 c 0.218,0.05 0.483,0.179 0.629,0.204 v 0.077 H 4.12 c 0.17,0.076 0.314,-0.053 0.557,0.076 0.411,0.152 0.894,0.407 1.283,0.482 0.096,0.079 0.169,0.153 0.194,0.28 l -0.072,0.052 c 0.12,0.101 0.507,-0.026 0.702,-0.102 0.267,-0.178 0.677,-0.126 0.774,-0.534 0.049,-0.077 0,-0.203 -0.046,-0.28 C 7.583,-1.323 7.535,-1.476 7.583,-1.654 7.487,-1.679 7.437,-1.755 7.343,-1.78 L 7.389,-1.883 C 7.316,-1.985 7.173,-2.01 7.051,-1.959 6.881,-1.857 6.759,-2.01 6.614,-2.035 c 0,0.025 -0.025,0.05 -0.025,0.05 C 6.469,-1.959 6.349,-2.137 6.227,-2.188 6.154,-1.959 6.105,-2.289 5.96,-2.238 L 5.91,-2.289 C 5.888,-2.265 5.864,-2.213 5.814,-2.238 L 5.742,-2.341 5.767,-2.364 C 5.379,-2.568 5.088,-2.595 4.629,-2.747 4.604,-2.926 4.434,-2.824 4.362,-2.875 3.878,-3.13 3.367,-3.231 2.957,-3.51 2.907,-3.739 2.495,-3.638 2.375,-3.815 2.059,-3.841 1.625,-4.12 1.309,-3.866 1.118,-3.968 1.018,-4.3 0.753,-4.375 0.63,-4.578 0.293,-4.604 0.147,-4.834 0.05,-4.73 -0.021,-4.909 -0.097,-4.756 c -0.12,-0.102 -0.144,-0.153 -0.24,-0.23 -0.122,0.077 -0.097,-0.076 -0.218,-0.05 -0.075,-0.076 -0.122,-0.205 -0.268,-0.254 -0.24,0.178 -0.24,-0.306 -0.46,-0.077 -0.241,-0.128 -0.459,-0.254 -0.655,-0.457 -0.144,0 -0.119,-0.23 -0.312,-0.178 -0.098,-0.078 -0.242,-0.153 -0.364,-0.205 -0.147,0.102 0.049,0.179 0,0.28 0.122,0.202 0.266,0.432 0.338,0.611 h 0.074 c 0.605,1.323 1.017,2.823 1.525,4.197 0.122,0.355 -0.146,0.355 -0.193,0.662 -0.17,0.126 -0.363,0.305 -0.389,0.482 l 0.34,0.051 v 0.05 C -0.823,0.025 -0.677,0.178 -0.58,0.203 -0.337,0.254 -0.12,0.152 0,0" /></g><g
         transform="translate(200.6807,209.0801)"
         id="g1115"><path
           inkscape:connector-curvature="0"
           id="path1117"
           style="fill:#231f20;fill-opacity:1;fill-rule:evenodd;stroke:none"
           d="M 0,0 C 0.243,-0.026 0.461,-0.178 0.584,-0.381 0.51,-0.559 0.729,-0.864 0.484,-0.992 0.558,-1.17 0.388,-1.22 0.51,-1.323 0.51,-1.45 0.243,-1.5 0.339,-1.678 0.194,-1.754 0,-1.804 -0.145,-1.882 -0.41,-1.959 -0.557,-2.035 -0.822,-2.085 -0.944,-2.289 -1.137,-2.01 -1.188,-2.289 -1.525,-2.441 -1.815,-2.518 -2.13,-2.722 c -0.509,-0.151 -0.994,-0.535 -1.551,-0.686 -0.048,-0.027 -0.098,-0.077 -0.098,-0.127 -0.242,0.1 -0.265,-0.178 -0.46,-0.153 -0.17,-0.203 -0.461,-0.253 -0.655,-0.406 v 0.025 c -0.336,-0.256 -0.724,-0.484 -1.16,-0.56 -0.195,0 -0.34,0.051 -0.51,0.153 -0.315,0.024 -0.654,0.177 -0.775,0.483 -0.12,0.228 -0.388,0.179 -0.363,0.458 -0.097,0.025 -0.147,0.05 -0.169,0.152 1.016,0.407 2.011,0.992 2.977,1.424 0.414,0.205 0.85,0.482 1.236,0.661 0.293,0.103 0.559,0.256 0.825,0.382 0.628,0.306 1.308,0.508 1.938,0.839 0.096,-0.026 0.218,0.051 0.291,0.18 C -0.41,-0.026 -0.17,-0.052 0,0" /></g><g
         transform="translate(202.5215,206.3843)"
         id="g1119"><path
           inkscape:connector-curvature="0"
           id="path1121"
           style="fill:#231f20;fill-opacity:1;fill-rule:evenodd;stroke:none"
           d="M 0,0 C 0.411,-0.28 0.776,-0.712 1.068,-1.119 1.164,-1.374 1.406,-1.704 1.237,-1.933 L 1.286,-1.984 C 1.211,-2.035 1.188,-2.162 1.237,-2.238 0.97,-2.365 1.138,-2.772 0.8,-2.875 0.51,-3.688 0.072,-4.553 0.072,-5.418 0,-6.131 0,-6.714 0,-7.479 c 0.122,-0.277 0,-0.634 0.194,-0.94 0.291,-1.094 0.92,-2.137 1.744,-2.925 0.849,-0.789 1.915,-1.22 3.101,-1.425 0.291,-0.229 0.704,-0.126 1.042,-0.279 0.12,0.076 0.387,0 0.582,0 0.218,0 0.556,-0.101 0.749,0.05 0.485,-0.025 0.922,0.256 1.404,0.154 0.607,0.025 0.607,0.585 1.09,0.941 0.463,0.584 0.607,1.347 0.776,2.061 v 0.583 c -0.096,0.254 -0.024,0.611 -0.071,0.891 -0.025,0.204 -0.194,0.483 -0.34,0.56 l 0.024,-0.027 0.049,0.052 c -0.121,0.28 -0.41,0.383 -0.581,0.636 0.121,0.051 -0.025,0.126 -0.074,0.204 l -0.073,0.1 c 0.122,-0.023 0.196,-0.151 0.318,-0.126 0.265,0.153 -0.122,0.255 0,0.457 -0.122,0.077 -0.146,0.255 -0.171,0.332 0.143,-0.255 0.265,-0.534 0.532,-0.663 0.291,-0.431 0.534,-0.864 0.896,-1.193 0.048,-0.383 0.438,-0.408 0.438,-0.791 0.41,-0.38 0.531,-0.94 0.846,-1.322 0.122,-0.534 0.242,-1.093 0.316,-1.626 0.24,-0.433 -0.098,-0.892 0.047,-1.374 0.074,-0.154 -0.167,-0.228 -0.072,-0.382 -0.243,-0.23 0,-0.56 -0.243,-0.788 0,-0.203 -0.193,-0.408 0.074,-0.509 -0.219,0.026 -0.437,0.101 -0.558,-0.102 -0.123,-0.077 0.025,-0.152 0.025,-0.23 -0.148,-0.025 -0.34,0.027 -0.293,-0.228 -0.216,0.228 -0.264,-0.203 -0.484,-0.025 -0.143,-0.204 -0.36,-0.103 -0.557,-0.256 l -0.048,0.052 c -0.024,-0.178 -0.217,0 -0.217,-0.152 h -0.096 v 0.025 c -0.025,0.075 -0.074,-0.025 -0.122,-0.025 l -0.072,0.1 c -0.05,-0.075 -0.194,-0.051 -0.171,-0.178 -0.07,0.029 -0.145,0 -0.192,0.052 -0.049,-0.075 -0.098,-0.127 -0.169,-0.127 0,0.153 -0.122,0.052 -0.196,0.075 l -0.122,-0.127 c 0,0 0.026,-0.05 0.051,-0.024 V -16.1 c -0.051,0 -0.072,0.026 -0.122,0.076 0,-0.05 -0.05,-0.101 -0.05,-0.127 l -0.192,0.103 C 8.987,-16.1 8.987,-16.151 8.963,-16.151 l -0.121,0.153 -0.122,-0.254 c -0.145,0.254 -0.314,-0.179 -0.483,0.077 0,-0.054 -0.049,-0.054 -0.073,-0.103 l -0.048,0.103 -0.073,-0.128 c 0.048,0.025 0,0.074 0.024,0.128 -0.024,0.024 -0.048,0.024 -0.096,0.024 0,0 0.023,0.051 0,0.051 -0.026,0.026 -0.048,0 -0.048,-0.025 -0.075,-0.104 0.144,-0.104 0,-0.153 l -0.075,0.049 v -0.074 c -0.12,0 -0.17,0.074 -0.316,0 l 0.076,0.074 c -0.076,0.054 -0.05,0.129 -0.121,0.104 -0.05,-0.026 0,-0.104 0,-0.153 0.045,0.127 -0.123,0.103 -0.244,0.127 -0.048,-0.152 -0.144,0 -0.219,-0.024 h -0.17 c 0.049,0.177 -0.119,0 -0.119,0.127 -0.123,0 -0.025,-0.181 -0.17,-0.103 0,0.051 -0.048,0.127 -0.122,0.177 -0.048,-0.024 -0.193,0 -0.17,-0.126 v -0.051 c -0.023,0.077 -0.216,0 -0.292,0.051 -0.07,-0.051 -0.168,-0.051 -0.264,-0.051 H 5.644 v 0.026 c -0.217,0.127 -0.386,-0.104 -0.58,0.127 -0.025,-0.05 -0.075,-0.127 -0.145,-0.102 l -0.099,0.102 c -0.023,-0.026 -0.048,0 -0.071,0 0,0.024 0,0.076 -0.025,0.102 -0.098,-0.051 -0.12,-0.128 -0.267,-0.128 0.024,0.026 0,0.05 -0.023,0.102 -0.098,-0.126 -0.195,-0.025 -0.242,0.026 0,0.026 -0.049,0.049 -0.049,0.049 l -0.122,-0.049 -0.071,0.101 -0.026,-0.052 c 0.026,0.052 -0.025,0.078 -0.025,0.103 -0.046,-0.126 -0.143,-0.103 -0.24,-0.051 l -0.096,0.075 c -0.028,-0.075 -0.097,-0.127 -0.146,-0.049 -0.048,0.306 -0.314,-0.078 -0.314,0.229 -0.124,0 -0.17,0.102 -0.29,0.051 -0.074,0.203 -0.366,0.076 -0.437,0.228 -0.049,0 -0.171,0 -0.268,0.052 -0.023,0.049 -0.023,0.127 -0.096,0.127 L 1.938,-15.16 c -0.194,0.204 -0.411,0.306 -0.63,0.485 -0.338,0.253 -0.605,0.559 -0.871,0.888 -0.169,0.077 -0.365,0.256 -0.46,0.461 -0.146,0.228 -0.459,0.354 -0.459,0.635 -0.196,0 -0.076,0.305 -0.247,0.253 -0.263,0.56 -0.676,0.992 -0.893,1.526 -0.509,1.195 -1.067,2.468 -0.944,3.891 0.072,0.229 0,0.611 0.048,0.917 0,0.482 0.121,0.992 0.095,1.424 0,0.636 0.218,1.22 0.292,1.856 -0.049,0.052 -0.12,0.052 -0.169,0.052 0.049,-0.153 -0.171,-0.127 -0.266,-0.204 -0.316,-0.049 -0.558,-0.356 -0.873,-0.432 -0.097,-0.255 -0.411,0.051 -0.436,-0.255 -0.193,0 -0.314,-0.178 -0.557,-0.203 v -0.052 c -0.17,0.052 -0.193,-0.076 -0.339,-0.126 l 0.049,-0.025 c -0.122,0.025 -0.193,-0.128 -0.315,-0.103 -0.097,-0.101 -0.148,-0.227 -0.29,-0.255 l -0.05,0.052 c -0.144,-0.305 -0.508,-0.153 -0.654,-0.431 -0.024,0.025 -0.073,0 -0.096,0.049 l -0.098,-0.127 c 0,0.026 -0.025,0.026 -0.025,0.052 -0.217,-0.026 -0.24,-0.382 -0.484,-0.28 -0.072,-0.203 -0.434,-0.255 -0.604,-0.306 -0.17,-0.051 -0.244,-0.204 -0.363,-0.255 -0.194,-0.075 -0.389,-0.024 -0.51,-0.228 l -0.023,0.026 C -8.283,-5.977 -8.429,-6.002 -8.55,-5.952 l -0.364,0.279 c -0.145,-0.024 -0.192,0.23 -0.315,0.306 -0.168,0.178 -0.388,0.127 -0.581,0.355 l -0.217,0.255 -0.026,-0.049 c -0.071,0.278 -0.556,0.126 -0.459,0.431 0.219,-0.178 0.339,0.229 0.556,0.152 0.025,0.026 0.073,0.051 0.051,0.103 0.095,-0.127 0.193,0.076 0.313,0.051 1.454,0.533 2.569,1.474 4.093,1.958 0.606,0.432 1.31,0.713 1.987,1.017 l 0.146,0.126 c 0.581,0.179 1.137,0.51 1.72,0.561 -0.047,0.178 0.144,0.28 0.048,0.431 0.074,0.078 0.049,0.281 0.242,0.255 0.122,0.154 0.438,0.102 0.46,0.331 C -0.7,0.151 -0.12,0.507 0,0" /></g><g
         transform="translate(196.0547,200.1274)"
         id="g1123"><path
           inkscape:connector-curvature="0"
           id="path1125"
           style="fill:#231f20;fill-opacity:1;fill-rule:evenodd;stroke:none"
           d="M 0,0 C 0.582,0.331 0.847,-0.535 1.261,-0.764 1.478,-1.094 2.592,-1.222 2.106,-1.934 2.277,-2.519 1.721,-2.95 1.502,-3.383 1.282,-3.407 1.261,-3.663 1.211,-3.814 1.502,-4.17 1.574,-4.655 1.913,-4.934 2.011,-5.162 2.205,-5.342 2.229,-5.621 2.059,-5.673 2.132,-5.876 2.083,-6.002 2.035,-6.002 2.011,-5.926 1.987,-5.926 1.672,-6.129 2.059,-7.148 1.454,-6.841 1.333,-6.767 1.211,-6.638 1.14,-6.587 H 0.945 c -0.121,0.152 -0.389,0.102 -0.533,0.254 -0.17,0.178 -0.34,0.407 -0.556,0.559 -0.075,0 -0.169,-0.025 -0.147,-0.102 v -0.075 c -0.193,-0.051 -0.146,-0.281 -0.266,-0.382 -0.121,-0.128 -0.364,-0.179 -0.388,-0.408 -0.363,-0.229 -0.701,-0.686 -1.017,-0.712 0.024,-0.127 -0.047,-0.151 -0.121,-0.229 -0.071,0.078 -0.12,0 -0.17,0 -0.121,-0.128 -0.217,-0.254 -0.339,-0.304 -0.218,-0.102 -0.289,-0.382 -0.558,-0.382 -0.023,-0.128 -0.144,-0.076 -0.216,-0.128 -0.123,0 -0.22,0.103 -0.291,-0.024 -0.339,-0.179 -0.777,-0.254 -1.09,-0.33 -0.243,-0.102 -0.56,0 -0.8,-0.102 -0.678,-0.052 -1.282,-0.179 -1.89,-0.382 -0.047,0.051 -0.194,0.051 -0.194,0.152 0.364,0.127 0.728,0.306 1.042,0.56 0.897,0.738 1.648,1.652 2.422,2.441 0.267,0.255 0.51,0.56 0.824,0.764 0.387,0.457 0.823,0.94 1.189,1.397 -0.366,0.458 -0.971,0.662 -1.432,1.07 -0.12,-0.026 -0.193,0.101 -0.266,0.151 L -3.9,-2.543 c 0.508,-0.153 0.824,0.253 1.26,0.304 0.532,0.178 1.065,0.025 1.549,-0.024 0.194,0.557 0.534,0.965 0.583,1.577 -0.049,0.228 -0.437,0.305 -0.242,0.634 0.169,0.103 0.437,0.103 0.606,0.103 C -0.12,-0.025 -0.074,0 0,0" /></g><g
         transform="translate(188.1348,183.9512)"
         id="g1127"><path
           inkscape:connector-curvature="0"
           id="path1129"
           style="fill:#231f20;fill-opacity:1;fill-rule:evenodd;stroke:none"
           d="m 0,0 0.05,0.052 c 0.289,-0.305 0.797,-0.128 1.111,-0.433 0.267,0 0.607,-0.229 0.775,-0.432 C 1.984,-1.221 2.373,-1.247 2.494,-1.552 2.663,-1.628 2.59,-1.781 2.783,-1.855 2.907,-2.034 2.979,-2.238 2.979,-2.467 2.833,-2.568 2.641,-2.722 2.737,-2.975 2.833,-3.078 2.663,-3.051 2.688,-3.18 c -0.315,0 -0.63,0 -0.945,-0.1 -0.241,0.229 -0.628,0.075 -0.871,0.357 L 0.727,-2.722 0.653,-2.746 c -0.073,0.077 -0.264,0.305 -0.434,0.456 0.023,0.18 -0.243,0.077 -0.169,0.281 -0.317,0.179 -0.51,0.535 -0.704,0.84 -0.316,0.304 0.024,0.685 -0.243,1.016 C -0.774,0 -1.019,0 -0.994,0.126 -0.679,0.052 -0.314,0.025 0,0" /></g><g
         transform="translate(202.5215,179.729)"
         id="g1131"><path
           inkscape:connector-curvature="0"
           id="path1133"
           style="fill:#231f20;fill-opacity:1;fill-rule:evenodd;stroke:none"
           d="m 0,0 c -0.169,-0.152 -0.436,-0.05 -0.654,-0.101 -0.313,-0.027 -0.557,-0.154 -0.823,-0.305 -0.291,-0.229 -0.654,-0.281 -0.92,-0.535 0,-0.178 -0.193,-0.051 -0.169,-0.23 -0.123,-0.279 -0.436,-0.482 -0.705,-0.585 v 0.103 c -0.168,0.051 -0.095,-0.228 -0.265,-0.203 -0.024,-0.306 -0.266,-0.205 -0.435,-0.381 -0.075,-0.052 -0.097,0.126 -0.097,0.025 l 0.022,-0.025 -0.191,-0.127 c -0.073,-0.306 0.217,-0.383 0.314,-0.586 0.073,-0.05 0,-0.255 0.146,-0.203 0.458,0.254 0.944,0.509 1.354,0.737 0.026,0.127 0.172,0.102 0.218,0.179 l 0.244,0.025 c 0.146,-0.152 0.291,0.126 0.437,0.101 v -0.051 c 0.168,0.051 0.218,-0.05 0.361,-0.075 0.196,0.075 0.339,-0.205 0.485,-0.254 0.074,-0.433 -0.485,-0.231 -0.556,-0.562 -0.29,-0.075 -0.557,-0.126 -0.777,-0.355 -0.434,-0.076 -0.724,-0.456 -1.065,-0.686 0.074,-0.104 -0.121,-0.051 -0.071,-0.179 0.169,-0.305 0.145,-0.686 0.119,-0.992 -0.048,-0.075 -0.048,-0.254 0.074,-0.229 0.097,0.103 0.291,0.076 0.314,0.281 0.316,-0.052 0.46,0.38 0.704,0.254 0.243,0.229 0.605,0.253 0.872,0.204 0.097,-0.204 0.46,-0.102 0.335,-0.407 -0.214,-0.027 -0.118,-0.382 -0.359,-0.256 -0.218,-0.101 0.046,-0.252 -0.123,-0.406 -0.677,0.051 -1.138,-0.433 -1.696,-0.662 0,-0.406 -0.022,-0.89 0.05,-1.296 0.072,-0.128 0,-0.381 0.072,-0.458 0.534,0.203 0.97,0.33 1.598,0.534 0.414,0.102 0.777,0.127 1.187,0.356 0.098,0.738 0,1.627 0.072,2.391 0.026,1.373 0.05,2.898 0.122,4.272 C 0.122,-0.457 0.364,-0.025 0,0 m 1.043,9.615 c 0.145,0 0.291,-0.203 0.41,-0.306 0.366,-0.28 0.824,-0.178 1.164,-0.484 0.196,0 0.29,-0.28 0.507,-0.228 C 3.246,8.572 3.345,8.495 3.392,8.368 3.392,8.189 3.317,8.063 3.15,8.011 3.053,7.681 3.61,7.504 3.345,7.123 3.076,7.123 3.103,6.715 2.813,6.791 L 2.327,6.131 C 2.205,6.079 2.18,6.258 2.085,6.232 1.865,6.232 1.916,5.825 1.697,6.054 1.647,5.825 1.406,6.003 1.356,5.825 1.381,5.8 1.356,5.774 1.356,5.748 1.188,5.696 0.994,5.622 0.944,5.367 c 0.145,-0.025 0.39,0 0.559,0 C 2.132,5.138 2.787,5.597 3.345,5.112 3.487,4.883 3.95,5.011 3.95,4.681 4.143,4.578 4.143,4.298 4.094,4.121 3.924,4.146 3.924,3.841 3.828,3.867 3.828,3.436 3.294,3.688 3.053,3.484 L 1.744,3.46 C 1.575,3.409 1.334,3.436 1.164,3.332 0.751,3.256 0.194,3.384 -0.193,3.129 V 3.154 C -0.24,3.205 -0.363,3.077 -0.363,3.179 -0.459,3.001 -0.678,3.129 -0.847,3.001 -0.943,3.154 -1.088,2.875 -1.257,2.85 -1.405,2.799 -1.646,2.875 -1.768,2.697 c 0.122,-0.305 0.534,-0.433 0.557,-0.815 0.024,-0.026 0.072,0 0.123,0 C -0.943,1.678 -1.163,1.425 -0.896,1.348 -0.918,1.171 -0.918,1.017 -0.729,0.992 -0.12,1.247 0.291,0.763 0.8,0.637 0.97,0.407 1.237,0.33 1.431,0.179 1.697,0.026 1.793,-0.229 2.085,-0.38 2.494,-0.609 2.447,-1.068 2.761,-1.322 2.714,-1.653 3.103,-1.703 3.004,-1.984 3.199,-2.162 2.933,-2.467 3.124,-2.619 3.222,-2.874 2.954,-2.924 2.933,-3.102 2.787,-3.205 2.954,-3.382 2.813,-3.484 2.813,-3.791 2.787,-4.17 2.641,-4.449 2.933,-4.629 2.447,-4.857 2.69,-5.085 2.593,-5.67 2.641,-6.281 2.641,-6.917 2.69,-7.476 2.813,-8.24 2.69,-8.875 2.787,-9.105 2.593,-9.257 2.617,-9.511 2.521,-9.538 2.494,-9.614 2.494,-9.688 2.327,-9.639 2.156,-9.893 2.012,-9.791 1.697,-10.124 1.286,-10.072 0.923,-9.97 L 0.8,-10.25 c 0,0.025 -0.024,0.051 -0.073,0.076 0,0 -0.024,-0.025 -0.048,-0.025 -0.146,0.127 -0.12,0.585 -0.388,0.408 -0.169,0.253 -0.097,0.686 -0.363,0.838 l -0.217,-0.126 0.12,-0.103 c 0,0.027 0,0.052 0.049,0.052 h -0.243 l 0.074,0.025 c -0.074,0.102 -0.147,0 -0.193,0.152 -0.122,-0.152 -0.291,-0.076 -0.247,-0.278 -0.069,0 -0.095,-0.077 -0.167,-0.026 l 0.098,0.05 c -0.194,0.077 -0.194,-0.101 -0.365,-0.127 l 0.024,0.026 c -0.048,0.051 -0.144,0 -0.144,-0.077 -0.219,0 -0.41,-0.076 -0.582,-0.126 -0.217,-0.255 -0.58,-0.177 -0.824,-0.382 -0.168,-0.077 -0.435,-0.127 -0.532,-0.254 -0.194,0 -0.386,-0.256 -0.532,-0.128 -0.146,-0.153 -0.315,-0.33 -0.557,-0.254 -0.074,0.076 -0.219,0.101 -0.315,0.254 -0.243,0.05 -0.219,0.382 -0.388,0.559 l -0.172,0.509 h 0.051 c -0.122,0.332 0.026,0.611 -0.122,0.94 -0.047,1.375 -0.047,2.977 0,4.274 0.098,0.23 -0.024,0.535 0,0.788 0.071,0.331 -0.192,0.714 0.071,0.993 0.027,0.255 0.317,0.432 0.292,0.687 0.485,1.169 0.97,2.288 1.502,3.407 -0.024,0.127 0.025,0.204 -0.048,0.255 C -3.729,2.034 -3.923,1.856 -4.189,1.729 -4.335,1.856 -4.335,1.602 -4.479,1.626 -4.844,1.654 -4.939,1.221 -5.28,1.171 -5.57,1.221 -5.885,0.916 -6.199,0.841 -6.395,1.017 -6.563,0.891 -6.734,1.12 L -6.855,1.093 c -0.073,0.154 -0.266,0.206 -0.362,0.332 -0.074,0.201 -0.316,0.382 -0.484,0.457 -0.557,-0.026 -1.042,0.102 -1.575,0.255 0.17,0.101 0.362,0.076 0.435,0.23 0.534,0.201 1.067,0.253 1.55,0.381 0.243,-0.051 0.436,0.075 0.63,0.177 0.68,0.407 1.405,0.559 2.083,1.044 0.049,0.177 -0.193,0.228 -0.193,0.406 -0.144,0.101 -0.122,0.255 -0.292,0.28 0.026,0.152 -0.095,0.28 -0.143,0.457 -0.147,-0.051 -0.147,0.127 -0.242,0.153 0.121,0.23 -0.122,0.381 -0.122,0.587 -0.218,0.074 0.049,0.227 -0.122,0.354 -0.169,0.177 -0.169,0.509 -0.435,0.484 -0.05,0.356 -0.363,0.433 -0.51,0.712 -0.097,0 -0.218,0.051 -0.291,0.152 h 0.242 l -0.193,0.153 c 0.024,0.102 0.193,0 0.269,0.076 0,-0.151 0.169,-0.128 0.264,-0.179 0.196,-0.1 0.414,0.077 0.607,-0.1 0.24,0.076 0.315,-0.204 0.483,-0.204 0.363,-0.051 0.727,0.052 1.019,-0.076 0.191,-0.026 0.63,0.05 0.75,-0.178 0.435,0.077 0.533,-0.331 0.847,-0.458 -0.145,-0.229 0.243,-0.407 -0.049,-0.56 -0.144,-0.28 0.266,-0.406 0.171,-0.712 0.024,-0.204 0.095,-0.433 -0.048,-0.534 -0.048,-0.051 -0.097,-0.076 0,-0.127 0.484,0.228 1.26,0.051 1.454,0.687 0.12,0.737 0.434,1.373 0.508,2.162 0.194,0.05 0.168,0.355 0.241,0.559 V 8.368 8.344 c 0.074,0.05 0,0.1 0,0.1 0.148,0.484 0.534,0.916 0.363,1.474 0.194,0 0.389,0.027 0.411,0.256 0.026,-0.101 0.148,0.077 0.244,0.051 0.145,-0.179 0.434,-0.28 0.388,-0.61" /></g><g
         transform="translate(189.9521,178.9414)"
         id="g1135"><path
           inkscape:connector-curvature="0"
           id="path1137"
           style="fill:#231f20;fill-opacity:1;fill-rule:evenodd;stroke:none"
           d="M 0,0 C 0.796,0.127 1.355,-0.562 2.032,-0.814 2.153,-1.043 2.349,-1.119 2.421,-1.375 2.567,-2.137 1.96,-2.671 1.768,-3.256 c -0.146,0 -0.099,-0.281 -0.267,-0.307 l -0.023,0.026 c -0.024,-0.026 0,-0.101 -0.024,-0.151 H 1.379 C 1.454,-4.046 0.966,-4.121 0.896,-4.502 0.772,-4.833 0.796,-5.29 1.041,-5.519 c 0.168,-0.459 0.556,-0.84 0.652,-1.323 0.365,-0.585 0.46,-1.324 0.39,-2.01 -0.025,-0.049 0,-0.127 -0.025,-0.203 0.243,-0.101 0.438,0 0.653,-0.05 0.121,-0.179 0.219,0.05 0.389,-0.027 0.629,-0.05 1.258,-0.204 1.887,-0.306 0.195,-0.125 0.414,-0.049 0.608,-0.177 0.194,0.077 0.24,-0.178 0.433,-0.102 0,-0.076 0.1,-0.1 0.147,-0.076 v 0.101 c 0.218,0.077 0.413,-0.252 0.632,-0.228 0.142,0 0.241,-0.178 0.435,-0.128 0.459,-0.101 0.774,-0.481 1.259,-0.558 l 0.022,0.026 -0.12,0.126 0.147,-0.025 c 0,-0.05 0.024,-0.077 0.049,-0.127 l 0.193,0.026 v -0.026 l 0.146,-0.025 c 0,-0.179 0.144,0.051 0.241,-0.103 0.462,-0.152 0.751,-0.329 1.259,-0.432 0.17,-0.102 0.413,-0.127 0.583,-0.255 0.702,-0.229 1.259,0.025 1.959,0.077 0,-0.052 -0.07,-0.077 -0.046,-0.178 0.072,-0.025 0.169,0 0.241,0.051 l -0.096,0.127 h 0.169 c 0,-0.052 -0.023,-0.077 -0.023,-0.101 0.121,-0.102 0.267,-0.026 0.413,0 v 0.126 c 0.046,0.051 0.288,0.051 0.362,0.102 -0.097,-0.228 0.217,-0.179 0.313,-0.179 0.147,-0.025 0.413,0.128 0.436,-0.025 0.244,0.178 0.56,0.128 0.849,0.255 0.171,-0.255 0.265,0.203 0.506,0.051 l 0.267,0.077 v -0.103 c 0.098,-0.076 0.22,0.052 0.149,0.103 0.385,0.075 0.968,0 1.331,0.228 0,0.05 0,0.126 -0.074,0.101 -0.267,-0.076 -0.459,-0.076 -0.751,-0.101 -0.145,0.076 -0.242,-0.127 -0.291,0.05 0.291,-0.025 0.51,0.154 0.801,0.051 0.436,0.18 0.895,0 1.283,0.078 0.075,-0.078 0.194,0.075 0.291,-0.026 0.896,-0.103 1.816,0.203 2.763,0.128 l 1.209,0.178 c -0.218,-0.205 -0.579,-0.205 -0.848,-0.306 -0.171,0.153 -0.314,-0.103 -0.461,0.077 -0.264,-0.077 -0.507,-0.104 -0.749,-0.077 0.073,-0.128 -0.121,-0.178 -0.217,-0.128 v 0.025 c -0.049,-0.05 -0.147,-0.075 -0.121,-0.177 0.047,-0.077 0.072,0.026 0.121,0.026 0.169,-0.204 0.482,0 0.604,-0.026 l 0.024,0.127 c 0.024,-0.076 0.074,-0.153 0.146,-0.153 0.339,0.026 0.605,0.332 0.97,0.178 0.193,0.101 0.313,0.051 0.531,0.128 0,-0.027 0,-0.077 0.05,-0.103 0.049,0.129 0.119,0.103 0.219,0.103 0.145,-0.153 0.265,0.101 0.385,0.051 0,-0.025 -0.072,-0.078 -0.023,-0.103 -0.217,0 -0.362,-0.177 -0.608,-0.076 -0.095,-0.33 -0.313,-0.253 -0.532,-0.432 -0.192,0.026 -0.216,-0.204 -0.435,-0.179 -0.048,-0.025 -0.075,-0.101 -0.075,-0.151 0,-0.026 0.05,-0.026 0.075,-0.026 -0.193,-0.28 -0.508,-0.432 -0.752,-0.662 -0.167,-0.202 -0.436,-0.127 -0.628,-0.33 -0.098,-0.178 -0.291,-0.255 -0.461,-0.406 -0.195,-0.026 -0.266,-0.255 -0.484,-0.229 -0.122,-0.23 -0.438,-0.306 -0.654,-0.332 -0.146,-0.102 -0.073,-0.228 -0.243,-0.228 -0.266,-0.281 -0.63,-0.305 -1.041,-0.332 -0.122,-0.304 -0.437,0 -0.605,-0.227 -0.316,-0.027 -0.583,0.1 -0.801,-0.205 -0.169,0.051 -0.314,-0.075 -0.458,-0.126 -0.073,-0.408 -0.751,-0.026 -0.582,-0.585 -0.073,-0.051 0.048,-0.204 -0.099,-0.255 l -0.192,0.228 c -0.047,-0.024 -0.024,-0.05 -0.024,-0.101 -0.051,0.077 -0.121,0.077 -0.097,0.178 -0.024,0.078 -0.072,-0.026 -0.121,-0.05 -0.025,-0.077 0.167,-0.077 0.023,-0.153 -0.023,0 -0.096,0.025 -0.12,0.076 -0.121,-0.229 -0.41,0.026 -0.532,-0.127 -0.025,0.025 0.046,0.153 -0.05,0.204 -0.097,0 -0.12,-0.255 -0.169,-0.306 -0.122,-0.101 -0.193,0.127 -0.291,-0.025 -0.073,-0.153 -0.218,0.025 -0.339,-0.103 -0.049,0.179 -0.17,0.027 -0.268,0.027 0.025,-0.152 -0.118,-0.178 -0.216,-0.178 l -0.024,0.026 c -0.05,-0.053 -0.121,-0.128 -0.219,-0.104 -0.097,0.104 -0.291,0.027 -0.411,-0.024 -0.05,-0.076 -0.17,0.102 -0.268,0.024 -0.024,0.027 -0.047,0.078 -0.097,0.027 -0.074,-0.101 -0.338,0.051 -0.338,-0.153 l -0.51,0.102 -0.022,-0.127 c -0.169,0.025 -0.194,0.356 -0.363,0.255 0,0.051 -0.074,0.101 -0.074,0.101 -0.218,-0.127 -0.315,0.458 -0.462,0.051 -0.022,0.101 -0.143,0.152 -0.216,0.228 l -0.024,-0.025 c -0.026,0.051 -0.049,0.153 -0.122,0.204 l -0.048,-0.051 c -0.195,0.356 -0.654,0.306 -0.798,0.584 -0.05,-0.152 -0.218,0.052 -0.218,-0.128 -0.074,0.18 -0.317,0.18 -0.267,0.408 -0.05,0.129 -0.145,0.076 -0.219,0 -0.121,0.076 -0.266,0.203 -0.436,0.154 0.025,0.1 0,0.227 -0.048,0.203 H 7.604 v 0.024 c -0.143,0 -0.219,0.331 -0.435,0.281 -0.147,0.103 -0.292,0.254 -0.413,0.28 l 0.051,0.05 c -0.075,-0.026 -0.169,0.102 -0.219,-0.026 -0.05,0.078 -0.146,0.256 -0.243,0.128 l -0.242,0.255 c -0.024,0 -0.024,-0.052 -0.049,-0.027 -0.095,0.103 0,0.228 -0.17,0.256 l -0.072,0.101 c 0,0.101 0.096,0 0.147,0.076 -0.026,0.051 -0.026,0.102 -0.075,0.128 -0.17,-0.204 -0.363,0.102 -0.531,0.102 -0.243,0.151 -0.461,0.406 -0.678,0.533 -0.148,0 -0.34,0.129 -0.487,0.254 -0.168,-0.076 -0.315,0.128 -0.459,0.205 -0.048,-0.077 -0.096,0.024 -0.193,0.024 0.047,0.077 -0.073,0.102 -0.073,0.153 -0.123,-0.025 -0.193,0.127 -0.317,0.179 -0.386,0.051 -0.944,0.304 -1.356,0.178 -0.435,0.025 -0.846,0.202 -1.258,-0.052 -0.095,0.026 -0.218,0.026 -0.218,-0.075 -0.704,-0.077 -1.259,-0.255 -1.963,-0.255 -0.168,-0.229 -0.435,-0.331 -0.678,-0.382 -0.145,0.025 -0.265,-0.255 -0.46,-0.229 -0.073,-0.026 -0.073,-0.127 -0.146,-0.127 l -0.047,0.026 c 0,-0.102 -0.145,-0.076 -0.194,-0.126 -0.291,0.151 -0.557,0.381 -0.679,0.735 -0.192,0.027 -0.411,-0.075 -0.507,0.052 -0.342,-0.178 -0.63,0.153 -0.971,0.076 0.051,0.179 -0.168,0.102 -0.241,0.205 -0.194,0.049 -0.219,0.253 -0.292,0.432 0.051,0 0.098,-0.078 0.145,-0.026 -0.047,0.203 -0.314,0.128 -0.29,0.306 0.218,-0.178 0.413,0.023 0.655,-0.027 0.098,-0.178 0.169,0.05 0.267,-0.076 0.289,0.126 0.605,-0.05 0.895,0.153 v -0.178 c 0.363,0.151 0.847,0.101 1.187,0.381 0.243,-0.025 0.218,0.23 0.437,0.23 0.047,0.025 0.072,-0.076 0.121,0 -0.025,0.126 0.144,0.051 0.194,0.151 0.121,0.025 0.266,0.306 0.485,0.204 0.119,0.281 0.581,0.458 0.845,0.739 0.099,0.304 0.485,0.608 0.461,0.991 -0.049,1.043 -0.58,1.805 -0.895,2.746 -0.048,0.433 -0.242,0.839 -0.048,1.247 -0.024,0.178 0.023,0.33 0.048,0.407 -0.048,0.153 0.023,0.153 0.072,0.279 0.17,0.408 -0.049,0.79 0.194,1.169 -0.169,0.079 -0.363,-0.126 -0.508,-0.126 -0.146,-0.101 -0.314,-0.204 -0.509,-0.304 -0.219,-0.129 -0.46,-0.357 -0.558,-0.584 0.098,-0.155 -0.146,-0.18 -0.24,-0.206 -0.146,0.152 -0.219,-0.127 -0.365,-0.075 -0.243,-0.077 -0.389,0.254 -0.629,0.227 -0.074,0.154 -0.244,0.077 -0.342,0.154 -0.118,0 -0.215,-0.127 -0.313,0 -0.147,-0.127 -0.435,-0.228 -0.678,-0.154 0.073,0.104 0.12,0.178 0.266,0.281 -0.146,0.026 -0.05,0.305 -0.266,0.203 0.216,0.433 0.726,0.28 0.92,0.713 0.098,0.126 0.292,0.102 0.484,0.126 0.777,0.612 1.672,1.146 2.544,1.552 0.121,0.051 0.411,-0.026 0.484,0.152 C -0.534,-0.128 -0.27,0.228 0,0" /></g><g
         transform="translate(206.4453,168.0557)"
         id="g1139"><path
           inkscape:connector-curvature="0"
           id="path1141"
           style="fill:#231f20;fill-opacity:1;fill-rule:evenodd;stroke:none"
           d="m 0,0 c -0.096,-0.025 -0.265,0.076 -0.338,0 v 0.076 c 0.025,0 0.073,0 0.073,0.025 L -0.217,0.024 C -0.217,0.177 0.098,0.202 0,0" /></g><g
         transform="translate(154.9849,226.7046)"
         id="g1227"><path
           inkscape:connector-curvature="0"
           id="path1229"
           style="fill:#ed1c24;fill-opacity:1;fill-rule:nonzero;stroke:none"
           d="M 0,0 C 0.011,0.116 0.009,0.213 0.001,0.291 -0.002,0.177 -0.003,0.075 0,0" /></g><g
         transform="translate(154.7266,224.4819)"
         id="g1231"><path
           inkscape:connector-curvature="0"
           id="path1233"
           style="fill:#ed1c24;fill-opacity:1;fill-rule:nonzero;stroke:none"
           d="M 0,0 C 0.019,0.021 0.032,0.052 0.031,0.104 0.019,0.071 0.012,0.034 0,0" /></g><g
         transform="translate(179.4902,250.23)"
         id="g1235"><path
           inkscape:connector-curvature="0"
           id="path1237"
           style="fill:#ed1c24;fill-opacity:1;fill-rule:nonzero;stroke:none"
           d="M 0,0 C -0.028,-0.004 0.017,-0.02 0,0" /></g><g
         transform="translate(155.7598,206.9985)"
         id="g1239"><path
           inkscape:connector-curvature="0"
           id="path1241"
           style="fill:#ed1c24;fill-opacity:1;fill-rule:nonzero;stroke:none"
           d="M 0,0 0.046,-0.107 C 0.033,-0.043 0.018,-0.012 0,0" /></g><g
         transform="translate(173.7529,202.8794)"
         id="g1243"><path
           inkscape:connector-curvature="0"
           id="path1245"
           style="fill:#ed1c24;fill-opacity:1;fill-rule:nonzero;stroke:none"
           d="m 0,0 0.201,0.06 c -0.435,1.336 -0.151,2.964 -0.13,4.641 0.078,0.195 0.26,0.504 0.224,1.004 -0.354,0.9 -0.344,1.378 -0.587,2.71 -0.025,0.976 0.045,2.569 0.158,3.564 -0.539,3.674 -0.179,7.453 -0.297,11.308 l 0.255,0.264 c -0.328,3.743 0.531,8.351 0.952,11.547 l 0.34,-0.386 c 0.319,0.955 0.34,2.261 0.009,2.077 0.3,0.971 0.344,2.489 0.814,3.023 0.307,0.97 0.103,1.259 0.243,2.097 0.552,1.728 0.722,2.499 1.013,3.983 0.064,-0.141 0.199,-0.128 0.312,0.256 l 0.043,0.313 0.018,0.089 0.01,0.046 0.003,0.011 v 10e-4 0.001 c 0.206,0.101 0.191,0.095 0.116,0.058 -0.171,-0.084 -0.253,-0.124 -0.278,-0.137 0.039,0.02 0.195,0.096 0.278,0.137 0.282,0.138 0.811,0.397 1.74,0.853 l 0.002,-0.001 0.006,-10e-4 0.022,-0.012 0.168,-0.085 c 0.068,-0.04 0.094,-0.06 0.102,-0.07 0.024,0.003 0.086,-0.002 0.259,-0.037 0.445,-0.051 0.732,-0.027 0.447,0.277 1.824,-0.641 4.39,-0.443 6.204,-0.964 -0.145,0.155 0.322,0.136 0.522,0.212 1.662,-0.099 3.418,-0.445 4.759,-0.242 0.265,-0.068 -0.43,-0.241 0.255,-0.251 0.407,0.055 0.008,0.183 0.512,0.262 1.552,0.139 3.13,0.062 4.668,0.009 l 2.193,0.026 v 2.781 c 0,1.211 0.935,2.193 2.089,2.193 1.152,0 2.087,-0.982 2.087,-2.193 v -2.465 c 1.292,0.124 2.6,0.233 3.895,0.339 -3.895,20.115 -20.833,35.253 -41.14,35.253 -20.761,0 -38.002,-15.827 -41.379,-36.617 0.16,0.064 -0.046,0.164 0.374,0.231 1.551,0.138 3.132,0.061 4.669,0.007 v 3.484 c 0,1.21 0.935,2.192 2.088,2.192 1.152,0 2.085,-0.982 2.085,-2.192 v -3.368 c 4.149,0.464 8.543,0.724 12.463,1.112 l -0.038,-0.107 c 1.363,0.54 3.369,-0.006 4.496,0.674 0.351,-0.058 1.332,0.067 1.087,-0.154 1.088,0.306 2.976,0.003 4.699,-0.012 0,0 -0.002,0 -0.003,0 l 2.62,-0.586 c 0.535,-0.156 0.144,-0.005 0.884,-0.099 l 0.623,-0.065 0.32,-0.047 0.16,-0.027 0.04,-0.007 0.003,-10e-4 c 0.035,-0.042 0.082,-0.099 0.139,-0.171 0.027,-0.032 0.009,-0.01 -0.11,0.136 h -0.003 l -0.021,-0.003 -0.042,-0.005 -0.172,-0.022 c -0.112,-0.018 -0.21,-0.044 -0.239,-0.093 l 0.263,-0.059 0.138,-0.008 0.035,-10e-4 h 0.017 l 0.009,10e-4 h 10e-4 c 0.666,-0.818 1.003,-1.234 1.159,-1.426 -0.055,0.068 -0.081,0.1 -0.091,0.112 0.014,-0.018 0.057,-0.07 0.099,-0.123 v -0.001 -0.003 -0.005 l -0.004,-0.078 0.008,-0.637 c 0.01,-0.414 -0.013,-0.787 -0.276,-0.952 -0.053,-0.371 0.124,-0.364 0.19,-0.183 -0.911,-4.172 -2.287,-8.268 -3.322,-12.165 -1.023,-2.745 -0.809,0.06 -1.066,-2.281 -0.138,-0.161 0.137,-0.182 0.035,-0.186 -0.118,-0.895 -0.844,-1.229 -0.724,-1.902 0.333,0.186 0.079,-0.445 0.248,-0.502 -0.515,-1.717 -0.906,-2.028 -0.826,-3.474 l -0.14,0.128 c 0.226,-1.697 -0.248,-3.611 0.248,-5.008 -0.031,-7.747 0.739,-15.334 1.57,-22.929 2.492,-0.484 5.061,-0.74 7.686,-0.74 2.723,0 5.382,0.276 7.959,0.795 C 0.438,-4.795 0.431,-4.774 0.423,-4.757 0.593,-3.244 0.251,-1.328 0,0" /></g><g
         transform="translate(179.6738,247.4839)"
         id="g1247"><path
           inkscape:connector-curvature="0"
           id="path1249"
           style="fill:#ed1c24;fill-opacity:1;fill-rule:nonzero;stroke:none"
           d="M 0,0 C 0.011,0.038 -0.07,0.029 0,0" /></g><g
         transform="translate(162.5137,248.3091)"
         id="g1251"><path
           inkscape:connector-curvature="0"
           id="path1253"
           style="fill:#231f20;fill-opacity:1;fill-rule:nonzero;stroke:none"
           d="M 0,0 C -0.006,0.007 -0.006,0.007 0,0" /></g><g
         transform="translate(229.7246,248.7534)"
         id="g1255"><path
           inkscape:connector-curvature="0"
           id="path1257"
           style="fill:#231f20;fill-opacity:1;fill-rule:nonzero;stroke:none"
           d="M 0,0 C -0.005,0.007 -0.005,0.007 0,0" /></g><g
         transform="translate(177.4502,249.5464)"
         id="g1259"><path
           inkscape:connector-curvature="0"
           id="path1261"
           style="fill:#231f20;fill-opacity:1;fill-rule:nonzero;stroke:none"
           d="M 0,0 C -0.083,-0.041 -0.239,-0.117 -0.278,-0.137 -0.253,-0.124 -0.171,-0.084 0,0" /></g></g></g></svg>